<svg fill="none" xmlns="http://www.w3.org/2000/svg" viewBox="0 0 18 15"><path d="M17.516 1.525c.117 0 .234-.079.234-.235V.353a.252.252 0 00-.234-.235H.484C.328.118.25.235.25.353v.937c0 .156.078.235.234.235h17.032zm0 6.25c.117 0 .234-.079.234-.235v-.937a.252.252 0 00-.234-.235H.484c-.156 0-.234.117-.234.235v.937c0 .156.078.235.234.235h17.032zm0 6.25c.117 0 .234-.079.234-.235v-.937a.252.252 0 00-.234-.235H.484c-.156 0-.234.117-.234.235v.937c0 .156.078.235.234.235h17.032z" fill="currentColor"/></svg>
