<svg fill="none" viewBox="0 0 18 21" xmlns="http://www.w3.org/2000/svg"><path d="m17.1641 3.45911-1.9922-1.99219c-.3125-.3125-.8985-.585939-1.3281-.585939h-6.7188c-1.05469 0-1.875.859379-1.875 1.874999v1.875h-3.125c-1.05469 0-1.875.85938-1.875 1.875v12.50002c0 1.0547.82031 1.875 1.875 1.875h8.75c1.0156 0 1.875-.8203 1.875-1.875v-1.875h3.125c1.0156 0 1.875-.8203 1.875-1.875v-10.46877c0-.42969-.2734-1.01562-.5859-1.32812zm-3.1641-1.28907c.0781.03907.1953.07813.2734.15625l2.0313 2.03125c.0781.07813.1172.19532.1562.27344h-2.4609zm-2.5 16.83596c0 .3515-.3125.625-.625.625h-8.75c-.35156 0-.625-.2735-.625-.625v-12.50002c0-.3125.27344-.625.625-.625h3.125v9.37502c0 1.0547.82031 1.875 1.875 1.875h4.375zm5-3.75c0 .3515-.3125.625-.625.625h-8.75c-.35156 0-.625-.2735-.625-.625v-12.50002c0-.3125.27344-.625.625-.625h5.625v2.8125c0 .54688.3906.9375.9375.9375h2.8125z" fill="currentColor"/></svg>
