<svg fill="none" height="16" viewBox="0 0 20 16" width="20" xmlns="http://www.w3.org/2000/svg"><path d="m18.5 2h-6l-1.7188-1.6875c-.1874-.1875-.4374-.3125-.7187-.3125h-4.5625c-.84375 0-1.5.6875-1.5 1.5v2.5h-2.5c-.84375 0-1.5.6875-1.5 1.5v9c0 .8438.65625 1.5 1.5 1.5h13c.8125 0 1.5-.6562 1.5-1.5v-2.5h2.5c.8125 0 1.5-.6562 1.5-1.5v-7c0-.8125-.6875-1.5-1.5-1.5zm-4 12.5h-13v-9h2.5v5c0 .8438.65625 1.5 1.5 1.5h9zm4-4h-13v-9h4.375l1.6875 1.71875c.1875.1875.4375.28125.7187.28125h6.2188z" fill="currentColor"/></svg>
