<svg width="28" height="39" viewBox="0 0 28 39" fill="none" xmlns="http://www.w3.org/2000/svg">
<path d="M27.7429 19.6169C27.7663 20.699 27.4897 21.7663 26.9439 22.6997C26.3923 23.6242 25.6219 24.3978 24.701 24.9516L16.9878 29.4216C16.9264 29.4516 16.8965 29.4516 16.8343 29.4832C16.3059 29.7506 15.7493 29.9575 15.1748 30.0997V38.5279H12.5958V30.1075C11.9867 29.9693 11.3981 29.7519 10.845 29.4609C8.29514 28.0736 5.52884 26.4683 3.07264 24.9578C2.1258 24.4034 1.33374 23.618 0.769949 22.6742C0.23726 21.7368 -0.0282858 20.6703 0.00238598 19.5915V10.6724C-0.0122903 9.56698 0.274371 8.47857 0.831354 7.52494C1.39978 6.6407 2.15533 5.89313 3.04424 5.33543C3.07417 5.30537 3.10564 5.30537 3.16705 5.27378L10.7867 0.832336L10.878 0.80228C11.8038 0.297344 12.8366 0.0222533 13.8899 0C14.9592 0.0036965 16.0085 0.29082 16.9318 0.832336L24.6749 5.30229C25.6245 5.82573 26.419 6.59235 26.9776 7.52417C27.5036 8.48772 27.7683 9.57309 27.7452 10.6716V19.6216L27.7429 19.6169ZM7.67572 14.6499C7.52664 14.5668 7.39558 14.4547 7.29024 14.3201C7.1849 14.1855 7.1074 14.0311 7.06229 13.866C7.01717 13.7009 7.00535 13.5284 7.02752 13.3587C7.04969 13.189 7.1054 13.0254 7.19139 12.8776C7.27738 12.7297 7.3919 12.6006 7.52825 12.4979C7.6646 12.3951 7.82001 12.3207 7.98539 12.279C8.15076 12.2374 8.32275 12.2293 8.49128 12.2553C8.6598 12.2812 8.82146 12.3408 8.96676 12.4303L12.5935 14.5289V10.2724C12.6017 9.93419 12.7413 9.6126 12.9824 9.3763C13.2236 9.14001 13.5472 9.00774 13.8842 9.00774C14.2211 9.00774 14.5447 9.14001 14.7859 9.3763C15.027 9.6126 15.1666 9.93419 15.1748 10.2724V20.2682L18.7693 18.1696C18.9146 18.08 19.0763 18.0205 19.2448 17.9945C19.4133 17.9685 19.5853 17.9766 19.7507 18.0183C19.9161 18.0599 20.0715 18.1343 20.2078 18.2371C20.3442 18.3399 20.4587 18.469 20.5447 18.6168C20.6307 18.7647 20.6864 18.9282 20.7085 19.098C20.7307 19.2677 20.7189 19.4402 20.6738 19.6053C20.6287 19.7704 20.5512 19.9247 20.4458 20.0594C20.3405 20.194 20.2094 20.3061 20.0604 20.3892L15.1748 23.2283V27.4232C15.3283 27.3615 15.5118 27.269 15.696 27.1766L23.3478 22.7351C23.9168 22.4063 24.3935 21.9381 24.7333 21.3741C25.0259 20.8354 25.1743 20.2297 25.1639 19.6162V10.6724C25.1888 10.0282 25.0401 9.38913 24.7333 8.82277C24.409 8.2828 23.9405 7.84493 23.3808 7.55885L15.6998 3.1151C15.152 2.78395 14.527 2.60347 13.8876 2.5918C13.2418 2.62278 12.6117 2.80178 12.0455 3.1151L4.45195 7.52648C3.88484 7.85251 3.40085 8.30628 3.0381 8.85205C2.71335 9.40143 2.55344 10.0332 2.57756 10.6716V19.5869C2.55561 20.2111 2.70511 20.8294 3.0097 21.3741C3.34499 21.9508 3.83489 22.4213 4.42355 22.732L12.0754 27.1735C12.2432 27.2678 12.4173 27.3502 12.5966 27.4201V17.4891L7.68416 14.6499H7.67572Z" fill="currentColor"/>
</svg>
