<svg fill="none" height="972" viewBox="0 0 1439 972" width="1439" xmlns="http://www.w3.org/2000/svg"><g fill="#fff" opacity=".05"><path d="m104.289 135.578c-15.9193 3.812-34.5183 3.753-48.9728 10.408 24.1563 12.925 54.4368 14.937 80.2558 25.481 80.515 25.552 153.183 73.4 208.597 137.034 1.947 3.404 15.851 15.962 11.789 4.695-47.675-78.634-116.867-145.121-201.487-182.654-15.377-5.146-33.878 4.613-50.182 5.036z"/><path d="m579.626 632.089c-27.357 10.792-58.022 17.907-83.534 31.076 25.626 70.726 62.973 138.322 111.877 195.831 42.763 48.175 96.569 87.935 156.458 111.78 19.14 2.695 35.722-14.057 53.696-18.622 38.115-17.114 76.821-33.218 114.154-51.906-10.887-13.031-31.747-18.29-45.286-29.828-86.929-61.259-157.882-143.546-208.23-237.061-9.3-10-11.721-39.167-30.421-25.088-22.905 7.939-45.81 15.879-68.714 23.818z"/><path d="m1124.26 636.384c-33.12 13.591-69.05 24.385-100.48 39.827 47.17 46.594 103.79 85.018 164.62 111.565 83.92-34.598 167.48-70.799 250.27-107.796-1.72-7.367-18.64-5.223-24.6-9.476-66.71-15.188-129.96-41.751-191.18-71.557-32.88 12.479-65.76 24.958-98.63 37.437z"/><path d="m561.945.0101076c-46.684.5401854-92.409 11.3690924-138.468 17.7971924-141.306 22.818-282.38 47.0192-423.4487924 71.2582-.6903666 4.8843 11.4775924 2.754 16.0864924 4.6185 46.1948 8.064 92.4123 19.149 135.2473 38.756 40.837 18.497 79.286 42.415 112.008 73.211 55.685 50.973 96.165 116.196 126.34 184.874 31.777 70.056 55.196 143.455 81.839 215.534 4 10.468 7.087 21.306 11.48 31.589 19.435-4.887 38.678-13.19 58.035-19.334 164.644-57.286 329.507-113.992 493.916-171.943 2.45-5.103-8.19-10.712-10.97-15.965-86.701-100.192-146.288-220.463-232.619-320.921-45.173-52.1533-105.736-93.762-174.8-105.09603-18.026-3.17021-36.351-4.520947-54.646-4.3788624z"/><path d="m901.661 519.408c-70.828 24.654-141.765 49.01-212.539 73.803-2.093 4.267 3.706 9.161 4.822 13.371 23.436 44.013 50.458 86.063 81.393 125.192 2.167 4.372 6.637 8.919 11.548 4.842 135.761-51.09 271.185-103.089 406.765-154.673-1.25-6.052-12.68-9.237-17.71-14.185-43.81-29.092-83.44-63.952-120.66-100.99-29.91 8.825-59.657 20.479-89.506 30.393-21.371 7.415-42.742 14.831-64.113 22.247z"/><path d="m992.473 686.13c-63.54 23.152-126.654 47.793-189.621 72.562-5.53 2.209 2.57 6.933 4.057 9.44 45.342 47.262 98.333 87.592 157.277 116.356 6.754 4.12 13.445-3.765 20.024-5.03 56.99-24.499 113.87-49.265 170.53-74.521-1.24-5.617-12.49-7.512-17.52-11.682-51.31-28.137-98.26-63.825-139.813-104.981-1.394-1.124-3.045-2.292-4.934-2.144z"/></g></svg>
