<svg xmlns="http://www.w3.org/2000/svg" viewBox="0 0 387 384"><path d="M341.167 306.049L228.03 192.912 341.756 79.185c3.142-3.141 3.155-8.217.03-11.343l-22.629-22.627c-3.126-3.126-8.202-3.113-11.343.03L194.088 158.97 80.951 45.833c-3.125-3.125-8.201-3.112-11.343.03L46.863 68.608c-3.143 3.142-3.155 8.218-.03 11.343L159.97 193.088 46.244 306.815c-3.142 3.141-3.155 8.217-.03 11.343l22.628 22.627c3.126 3.126 8.202 3.113 11.343-.03L193.912 227.03l113.137 113.137c3.125 3.125 8.201 3.112 11.343-.03l22.745-22.745c3.142-3.142 3.155-8.218.03-11.343z"/></svg>
