<svg data-token-name="eye-slash" width="21" height="16" viewBox="0 0 21 16" fill="none" xmlns="http://www.w3.org/2000/svg">
  <path d="M20.8125 14.7188L2.125 0.125C2.03125 0.0625 1.90625 0 1.8125 0C1.65625 0 1.5 0.09375 1.40625 0.1875L1.09375 0.59375C1.03125 0.65625 0.96875 0.8125 0.96875 0.90625C0.96875 1.03125 1.0625 1.21875 1.1875 1.28125L19.875 15.9062C19.9375 15.9688 20.0625 16 20.1875 16C20.3125 16 20.4688 15.9375 20.5625 15.8125L20.875 15.4375C20.9375 15.375 21 15.2188 21 15.125C21 15 20.9062 14.8125 20.8125 14.7188ZM10.25 4.59375L14.4688 7.875C14.4062 6 12.875 4.5 11 4.5C10.7812 4.53125 10.4688 4.5625 10.25 4.59375ZM11.7188 11.4375L7.5 8.15625C7.5625 10.0312 9.09375 11.5 11 11.5C11.1875 11.5 11.5 11.4688 11.7188 11.4375ZM11 3.5C14.0625 3.5 16.9062 5.21875 18.4062 8C18.0938 8.59375 17.5 9.4375 17.0312 9.90625L18.2188 10.8125C18.7812 10.2188 19.5 9.1875 19.875 8.46875C19.9375 8.34375 20 8.15625 20 8C20 7.875 19.9375 7.6875 19.875 7.5625C18.1875 4.25 14.8125 2 11 2C9.84375 2 8.75 2.21875 7.71875 2.59375L9.15625 3.75C9.75 3.59375 10.375 3.5 11 3.5ZM11 12.5C7.90625 12.5 5.0625 10.7812 3.5625 8C3.875 7.4375 4.46875 6.59375 4.9375 6.125L3.75 5.21875C3.1875 5.8125 2.46875 6.84375 2.09375 7.5625C2.03125 7.6875 2 7.875 2 8.03125C2 8.15625 2.03125 8.34375 2.09375 8.46875C3.78125 11.7812 7.15625 14 11 14C12.125 14 13.2188 13.7812 14.25 13.4375L12.8125 12.2812C12.2188 12.4375 11.5938 12.5 11 12.5Z" fill="currentColor"/>
</svg>
