<svg fill="none" viewBox="0 0 18 21" xmlns="http://www.w3.org/2000/svg"><path d="m17.4375 3.38098h-4.0625l-1.3281-1.71875c-.3125-.42969-.9766-.781249-1.4844-.781249h-3.125c-.54688 0-1.21094.351559-1.52344.781249l-1.28906 1.71875h-4.0625c-.195312 0-.3125.15625-.3125.3125v.625c0 .19531.117188.3125.3125.3125h.70312l1.32813 14.57032c.07813.9375.89844 1.6797 1.83594 1.6797h9.10151c.9376 0 1.7579-.7422 1.836-1.6797l1.3281-14.57032h.7422c.1563 0 .3125-.11719.3125-.3125v-.625c0-.15625-.1562-.3125-.3125-.3125zm-10.50781-.97656c.07812-.15625.3125-.23438.50781-.27344h3.125c.1563.03906.3906.11719.4687.27344l.7813.97656h-5.625zm7.22651 16.67968c-.039.3125-.3124.5469-.625.5469h-9.10151c-.3125 0-.58594-.2344-.58594-.5469l-1.28906-14.45312h12.89061z" fill="currentColor"/></svg>
