<svg fill="none" xmlns="http://www.w3.org/2000/svg" viewBox="0 0 123 29"><path d="M.747 11.538c.004-1.292.23-2.573.666-3.788a10.544 10.544 0 011.953-3.391 9.84 9.84 0 013.152-2.422 9.43 9.43 0 014.232-.925 8.812 8.812 0 014.824 1.278 7.935 7.935 0 012.99 3.328l-2.102 1.367a6.123 6.123 0 00-1.14-1.695 5.852 5.852 0 00-1.45-1.1 6.226 6.226 0 00-1.611-.594 7.723 7.723 0 00-1.628-.178 6.4 6.4 0 00-3.093.728 7.158 7.158 0 00-2.264 1.902A8.236 8.236 0 003.9 8.693a9.88 9.88 0 00-.46 2.956 9.16 9.16 0 00.546 3.165 8.73 8.73 0 001.526 2.668 7.427 7.427 0 002.308 1.842 6.259 6.259 0 002.9.684 7.332 7.332 0 001.702-.208 6.222 6.222 0 001.672-.67 7.143 7.143 0 001.494-1.155 5.656 5.656 0 001.14-1.679l2.22 1.215a6.565 6.565 0 01-1.406 2.095 8.894 8.894 0 01-2.041 1.53c-.761.417-1.572.736-2.412.951a9.974 9.974 0 01-2.486.327 8.378 8.378 0 01-3.967-.951 10.594 10.594 0 01-3.122-2.482 11.362 11.362 0 01-2.042-3.476 11.28 11.28 0 01-.725-3.967zm21.13 10.698V6.725h2.605v15.51h-2.604zm0-18.424V.544h2.605v3.268h-2.604zM36.677 21.46a12.05 12.05 0 01-1.495.609 7.601 7.601 0 01-1.065.268 6.74 6.74 0 01-1.2.104 3.943 3.943 0 01-2.455-.788 2.876 2.876 0 01-1.037-2.451V8.775h-2.101v-2.05h2.101v-5.17h2.605v5.17h3.462v2.05H32.03v9.627a1.623 1.623 0 00.562 1.248c.34.259.757.395 1.184.386.48.005.957-.08 1.405-.253.301-.11.593-.245.873-.402l.623 2.08zm3.136 4.993a10.229 10.229 0 001.36.12c.223.003.442-.053.636-.164a1.75 1.75 0 00.563-.639c.24-.426.453-.868.636-1.322.237-.566.533-1.304.888-2.215l-6.54-15.508h2.694l5.268 13.163 4.795-13.163h2.486L45.08 26.306a4.511 4.511 0 01-1.376 1.828 4.065 4.065 0 01-2.649.787c-.183 0-.365-.01-.547-.03a6.79 6.79 0 01-.696-.118v-2.32zM67.987 5.566a4.387 4.387 0 00-.947-.803 8.413 8.413 0 00-1.332-.698 9.335 9.335 0 00-1.612-.505 8.403 8.403 0 00-1.82-.193 5.696 5.696 0 00-3.596.925 3.064 3.064 0 00-1.14 2.525c-.018.496.095.988.326 1.427.25.407.602.74 1.021.965a7.773 7.773 0 001.732.698c.69.199 1.51.407 2.456.625.997.213 1.98.486 2.944.817a8.562 8.562 0 012.249 1.14 4.576 4.576 0 011.42 1.664c.347.753.514 1.577.489 2.407a5.53 5.53 0 01-.592 2.63 5.265 5.265 0 01-1.612 1.842 6.972 6.972 0 01-2.412 1.07c-.989.235-2.002.35-3.019.341a13.888 13.888 0 01-4.605-.758 12.85 12.85 0 01-3.95-2.214l1.272-2.258c.37.382.782.721 1.228 1.01.542.358 1.116.661 1.716.907.671.277 1.365.495 2.073.654.762.17 1.542.255 2.323.252a6.427 6.427 0 003.49-.801 2.667 2.667 0 001.247-2.408 2.679 2.679 0 00-.402-1.5c-.302-.439-.701-.8-1.167-1.055a8.973 8.973 0 00-1.909-.788c-.76-.227-1.623-.46-2.59-.698a25.817 25.817 0 01-2.811-.832 7.652 7.652 0 01-2.028-1.07 4.032 4.032 0 01-1.228-1.515 5.044 5.044 0 01-.414-2.14 6.055 6.055 0 01.563-2.674 5.61 5.61 0 011.568-1.961 6.834 6.834 0 012.398-1.202c.982-.275 1.998-.41 3.018-.402a10.74 10.74 0 013.847.654 10.762 10.762 0 013.05 1.751l-1.244 2.17zm10.032 16.966a4.315 4.315 0 01-3.67-1.634c-.828-1.09-1.242-2.714-1.242-4.873v-9.3h2.604v8.795c0 3.17 1.096 4.754 3.286 4.754A5.006 5.006 0 0082 19.25a6.045 6.045 0 002.086-2.809V6.725h2.604v12.302c0 .616.277.933.83.95v2.259c-.296.04-.528.065-.696.077-.168.012-.33.017-.488.015a1.867 1.867 0 01-1.287-.463 1.562 1.562 0 01-.548-1.144l-.059-1.812a7.176 7.176 0 01-2.722 2.689 7.499 7.499 0 01-3.702.934zm13.022-.297V6.725h2.604v15.51H91.04zm0-18.423V.544h2.604v3.268H91.04zM105.84 21.46a12.088 12.088 0 01-1.494.609 7.653 7.653 0 01-1.066.267c-.396.07-.797.105-1.199.104a3.942 3.942 0 01-2.456-.788 2.876 2.876 0 01-1.036-2.451V8.775h-2.103v-2.05h2.101v-5.17h2.605v5.17h3.462v2.05h-3.462v9.627a1.623 1.623 0 00.562 1.248c.34.259.757.395 1.184.386.48.005.957-.08 1.405-.253.301-.11.593-.245.873-.402l.624 2.079zm9.057 1.07a7.843 7.843 0 01-3.196-.64 7.554 7.554 0 01-2.486-1.738 7.931 7.931 0 01-1.612-2.57 8.432 8.432 0 01-.577-3.105 8.313 8.313 0 01.577-3.09 7.85 7.85 0 011.628-2.556 7.727 7.727 0 015.695-2.375 7.56 7.56 0 015.623 2.392 7.685 7.685 0 011.553 2.525c.364.954.55 1.966.548 2.987 0 .217-.005.415-.015.594-.005.14-.02.278-.044.416h-12.819c.049.73.229 1.445.533 2.11.28.612.67 1.166 1.151 1.635a5.346 5.346 0 001.612 1.07 4.804 4.804 0 001.909.385c.47 0 .938-.065 1.391-.194a6.039 6.039 0 001.273-.52 4.416 4.416 0 001.05-.802c.3-.308.536-.671.696-1.07l2.249.624a5.73 5.73 0 01-1.051 1.575 6.977 6.977 0 01-1.535 1.234 8.226 8.226 0 01-4.153 1.116v-.004zm5.297-9.094a5.612 5.612 0 00-.548-2.036 5.427 5.427 0 00-1.151-1.59 5.155 5.155 0 00-1.612-1.025 5.152 5.152 0 00-1.953-.371 5.157 5.157 0 00-1.954.371 5.023 5.023 0 00-1.612 1.04c-.47.456-.851.995-1.124 1.59a5.85 5.85 0 00-.518 2.021h10.472z" fill="currentColor"/></svg>
