<?xml version="1.0" encoding="UTF-8"?><!DOCTYPE svg PUBLIC "-//W3C//DTD SVG 1.1//EN" "http://www.w3.org/Graphics/SVG/1.1/DTD/svg11.dtd"><svg xmlns="http://www.w3.org/2000/svg" xmlns:xlink="http://www.w3.org/1999/xlink"><symbol id="account-profile" viewBox="0 0 20.13 23">
  <path fill="currentColor" d="M14.09 12.94c-1.3 0-1.91.72-4.03.72s-2.73-.72-4.02-.72A6.04 6.04 0 000 18.98v1.86A2.16 2.16 0 002.16 23h15.8a2.16 2.16 0 002.17-2.16v-1.86a6.04 6.04 0 00-6.04-6.04zm4.6 7.9a.72.72 0 01-.72.72H2.16a.72.72 0 01-.72-.72v-1.86a4.6 4.6 0 014.6-4.6c.88 0 1.75.71 4.02.71s3.15-.71 4.03-.71a4.6 4.6 0 014.6 4.6zm-8.63-9.34a5.75 5.75 0 005.75-5.75A5.75 5.75 0 0010.06 0a5.75 5.75 0 00-5.75 5.75 5.75 5.75 0 005.75 5.75zm0-10.06a4.32 4.32 0 014.32 4.31 4.32 4.32 0 01-4.32 4.31 4.32 4.32 0 01-4.3-4.3 4.32 4.32 0 014.3-4.32z"/>
</symbol><symbol id="account-sign-out" viewBox="0 0 21.88 25">
  <path fill="currentColor" d="M19.53 10.94h-.78V7.89A7.86 7.86 0 0010.96 0a7.82 7.82 0 00-7.84 7.81v3.13h-.78A2.34 2.34 0 000 13.28v9.38A2.34 2.34 0 002.34 25h17.2a2.34 2.34 0 002.33-2.34v-9.38a2.34 2.34 0 00-2.34-2.34zM4.7 7.8a6.26 6.26 0 016.25-6.25 6.26 6.26 0 016.25 6.25v3.13H4.69zm14.84 15.63H2.34a.78.78 0 01-.78-.78v-9.38a.78.78 0 01.78-.78h17.2a.78.78 0 01.77.78v9.38a.78.78 0 01-.78.78z"/>
</symbol><symbol id="account-wallet" viewBox="0 0 23 20.13">
  <path fill="currentColor" d="M17.25 10.06a1.44 1.44 0 00-1.44 1.44 1.44 1.44 0 001.44 1.44 1.44 1.44 0 001.44-1.44 1.44 1.44 0 00-1.44-1.44zm3.6-7.18h-.72v-.72A2.16 2.16 0 0017.96 0H4.3A4.31 4.31 0 000 4.31v11.5a4.31 4.31 0 004.31 4.31h15.82A2.88 2.88 0 0023 17.25V5.03a2.16 2.16 0 00-2.16-2.15zm.71 14.37a1.44 1.44 0 01-1.43 1.44H4.3a2.88 2.88 0 01-2.87-2.88V4.31A2.88 2.88 0 014.3 1.44h13.66a.72.72 0 01.72.72v.72H5.03a.72.72 0 00-.72.71.72.72 0 00.72.72h15.81a.72.72 0 01.72.72z"/>
</symbol><symbol id="angle-arrow-left" viewBox="0 0 448 512"><path d="M229.9 473.899l19.799-19.799c4.686-4.686 4.686-12.284 0-16.971L94.569 282H436c6.627 0 12-5.373 12-12v-28c0-6.627-5.373-12-12-12H94.569l155.13-155.13c4.686-4.686 4.686-12.284 0-16.971L229.9 38.101c-4.686-4.686-12.284-4.686-16.971 0L3.515 247.515c-4.686 4.686-4.686 12.284 0 16.971L212.929 473.9c4.686 4.686 12.284 4.686 16.971-.001z"/></symbol><symbol id="angle-arrow-right" viewBox="0 0 8 13"><path d="M7.781 6.422a.583.583 0 00.047-.797L2.297.187c-.235-.234-.61-.234-.797 0l-.328.329a.54.54 0 000 .796L5.953 6l-4.781 4.734a.54.54 0 000 .797l.328.328c.188.235.563.235.797 0L7.78 6.422z" fill="currentColor"/></symbol><symbol id="angle-down" viewBox="0 0 256 512"><path d="M119.5 326.9L3.5 209.1c-4.7-4.7-4.7-12.3 0-17l7.1-7.1c4.7-4.7 12.3-4.7 17 0L128 287.3l100.4-102.2c4.7-4.7 12.3-4.7 17 0l7.1 7.1c4.7 4.7 4.7 12.3 0 17L136.5 327c-4.7 4.6-12.3 4.6-17-.1z"/></symbol><symbol id="angle-left" viewBox="0 0 192 512"><path d="M25.1 247.5l117.8-116c4.7-4.7 12.3-4.7 17 0l7.1 7.1c4.7 4.7 4.7 12.3 0 17L64.7 256l102.2 100.4c4.7 4.7 4.7 12.3 0 17l-7.1 7.1c-4.7 4.7-12.3 4.7-17 0L25 264.5c-4.6-4.7-4.6-12.3.1-17z"/></symbol><symbol id="angle-right" viewBox="0 0 192 512"><path d="M166.9 264.5l-117.8 116c-4.7 4.7-12.3 4.7-17 0l-7.1-7.1c-4.7-4.7-4.7-12.3 0-17L127.3 256 25.1 155.6c-4.7-4.7-4.7-12.3 0-17l7.1-7.1c4.7-4.7 12.3-4.7 17 0l117.8 116c4.6 4.7 4.6 12.3-.1 17z"/></symbol><symbol id="arrow-down" viewBox="0 0 448 512"><path d="M441.9 250.1l-19.8-19.8c-4.7-4.7-12.3-4.7-17 0L250 385.4V44c0-6.6-5.4-12-12-12h-28c-6.6 0-12 5.4-12 12v341.4L42.9 230.3c-4.7-4.7-12.3-4.7-17 0L6.1 250.1c-4.7 4.7-4.7 12.3 0 17l209.4 209.4c4.7 4.7 12.3 4.7 17 0l209.4-209.4c4.7-4.7 4.7-12.3 0-17z"/></symbol><symbol id="arrow-right" viewBox="0 0 448 512"><path d="M218.101 38.101L198.302 57.9c-4.686 4.686-4.686 12.284 0 16.971L353.432 230H12c-6.627 0-12 5.373-12 12v28c0 6.627 5.373 12 12 12h341.432l-155.13 155.13c-4.686 4.686-4.686 12.284 0 16.971l19.799 19.799c4.686 4.686 12.284 4.686 16.971 0l209.414-209.414c4.686-4.686 4.686-12.284 0-16.971L235.071 38.101c-4.686-4.687-12.284-4.687-16.97 0z"/></symbol><symbol id="bars" viewBox="0 0 18 15"><path d="M17.516 1.525c.117 0 .234-.079.234-.235V.353a.252.252 0 00-.234-.235H.484C.328.118.25.235.25.353v.937c0 .156.078.235.234.235h17.032zm0 6.25c.117 0 .234-.079.234-.235v-.937a.252.252 0 00-.234-.235H.484c-.156 0-.234.117-.234.235v.937c0 .156.078.235.234.235h17.032zm0 6.25c.117 0 .234-.079.234-.235v-.937a.252.252 0 00-.234-.235H.484c-.156 0-.234.117-.234.235v.937c0 .156.078.235.234.235h17.032z" fill="currentColor"/></symbol><symbol id="bell" viewBox="0 0 448 512"><path d="M224 480c-17.66 0-32-14.38-32-32.03h-32c0 35.31 28.72 64.03 64 64.03s64-28.72 64-64.03h-32c0 17.65-14.34 32.03-32 32.03zm209.38-145.19c-27.96-26.62-49.34-54.48-49.34-148.91 0-79.59-63.39-144.5-144.04-152.35V16c0-8.84-7.16-16-16-16s-16 7.16-16 16v17.56C127.35 41.41 63.96 106.31 63.96 185.9c0 94.42-21.39 122.29-49.35 148.91-13.97 13.3-18.38 33.41-11.25 51.23C10.64 404.24 28.16 416 48 416h352c19.84 0 37.36-11.77 44.64-29.97 7.13-17.82 2.71-37.92-11.26-51.22zM400 384H48c-14.23 0-21.34-16.47-11.32-26.01 34.86-33.19 59.28-70.34 59.28-172.08C95.96 118.53 153.23 64 224 64c70.76 0 128.04 54.52 128.04 121.9 0 101.35 24.21 138.7 59.28 172.08C421.38 367.57 414.17 384 400 384z"/></symbol><symbol id="bookmark-checked" viewBox="0 0 384 512"><g fill="none" fill-rule="evenodd"><path d="M0 511.6l192-111.912L384 511.6V47.963C384 21.973 361.984 0 336 0H48C20.992 0 0 21.999 0 47.963V511.6z" fill="currentColor"/><path d="M333.809 132.039L153.329 311.07c-4.705 4.667-12.303 4.637-16.97-.068L50.48 224.43c-4.667-4.705-4.637-12.303.068-16.97l8.52-8.451c4.705-4.667 12.303-4.637 16.97.068l68.976 69.533 163.44-162.13c4.706-4.667 12.304-4.637 16.97.068l8.452 8.52c4.668 4.705 4.637 12.303-.068 16.97z" fill="#FFF"/></g></symbol><symbol id="bookmark-filled" viewBox="0 0 384 512"><path d="M0 511.6l192-111.912L384 511.6V47.963C384 21.973 361.984 0 336 0H48C20.992 0 0 21.999 0 47.963V511.6z"/></symbol><symbol id="bookmark" viewBox="0 0 16 21"><path d="m13.625.880981h-11.25c-1.05469 0-1.875.859379-1.875 1.874999v18.12502l7.5-4.375 7.5 4.375v-18.12502c0-1.01562-.8594-1.874999-1.875-1.874999zm.625 17.851519-6.25-3.6718-6.25 3.6718v-15.97652c0-.3125.27344-.625.625-.625h11.25c.3125 0 .625.3125.625.625z"/></symbol><symbol id="breadcrumb-point" viewBox="0 0 7 36">
<path d="M0 0H0.933333L7 17.5L0.933333 36H0V0Z" fill="currentColor"/>
</symbol><symbol id="breadcrumb-tail" viewBox="0 0 7 36">
<path d="M7 36H0L5.83333 17.5L0 0H7V36Z" fill="currentColor"/>
</symbol><symbol id="calendar" viewBox="0 0 448 512"><path d="M400 64h-48V12c0-6.6-5.4-12-12-12h-40c-6.6 0-12 5.4-12 12v52H160V12c0-6.6-5.4-12-12-12h-40c-6.6 0-12 5.4-12 12v52H48C21.5 64 0 85.5 0 112v352c0 26.5 21.5 48 48 48h352c26.5 0 48-21.5 48-48V112c0-26.5-21.5-48-48-48zm-6 400H54c-3.3 0-6-2.7-6-6V160h352v298c0 3.3-2.7 6-6 6z"/></symbol><symbol id="caret-down" viewBox="0 0 16 17"><path d="M7.719 10.719a.36.36 0 00.531 0l3.625-3.656c.156-.157.156-.407 0-.532l-.219-.218a.36.36 0 00-.531 0L8 9.5 4.844 6.281a.423.423 0 00-.532 0l-.218.25c-.157.125-.157.375 0 .532l3.625 3.656z" fill="currentColor"/></symbol><symbol id="check-filled" viewBox="0 0 387 387"><path fill="currentColor" d="M0 0h387v387H0z"/><path d="M307.312 79.204l-165.06 164.93-60.65-60.602a7.535 7.535 0 00-10.648 0l-17.749 17.734a7.52 7.52 0 000 10.641l83.722 83.656a7.535 7.535 0 0010.65 0l188.132-187.984a7.52 7.52 0 000-10.641L317.96 79.204a7.534 7.534 0 00-10.648 0z" fill="#FFF"/></symbol><symbol id="check" viewBox="0 0 512 512"><path d="M435.848 83.466L172.804 346.51l-96.652-96.652c-4.686-4.686-12.284-4.686-16.971 0l-28.284 28.284c-4.686 4.686-4.686 12.284 0 16.971l133.421 133.421c4.686 4.686 12.284 4.686 16.971 0l299.813-299.813c4.686-4.686 4.686-12.284 0-16.971l-28.284-28.284c-4.686-4.686-12.284-4.686-16.97 0z"/></symbol><symbol id="checkmark-filled" viewBox="0 0 20 20"><path d="M0 1a1 1 0 011-1h18a1 1 0 011 1v18a1 1 0 01-1 1H1a1 1 0 01-1-1V1z" fill="currentColor"/><path d="M1 1.5h18v-3H1v3zM18.5 1v18h3V1h-3zm.5 17.5H1v3h18v-3zM1.5 19V1h-3v18h3zm-.5-.5a.5.5 0 01.5.5h-3A2.5 2.5 0 001 21.5v-3zm17.5.5a.5.5 0 01.5-.5v3a2.5 2.5 0 002.5-2.5h-3zM19 1.5a.5.5 0 01-.5-.5h3A2.5 2.5 0 0019-1.5v3zm-18-3A2.5 2.5 0 00-1.5 1h3a.5.5 0 01-.5.5v-3z" fill="currentColor"/><path d="M16.594 4.625l-8.219 8.219-3-3.031c-.156-.126-.406-.126-.531 0l-.907.906c-.124.125-.124.375 0 .531l4.188 4.156a.36.36 0 00.531 0l9.375-9.375c.125-.125.125-.375 0-.531l-.906-.875c-.125-.156-.375-.156-.531 0z" fill="#fff"/></symbol><symbol id="checkmark" viewBox="0 0 16 12"><path d="M13.594.625L5.375 8.844l-3-3.031c-.156-.125-.406-.125-.531 0l-.907.906c-.125.125-.125.375 0 .531l4.188 4.156a.36.36 0 00.531 0l9.375-9.375c.125-.125.125-.375 0-.531l-.906-.875c-.125-.156-.375-.156-.531 0z" fill="currentColor"/></symbol><symbol id="city-graphic" viewBox="0 0 769 458"><g opacity="0.2"><path opacity=".217" d="M486.279 115.907h-12.254a8.168 8.168 0 003.403-.57 8.548 8.548 0 002.917-1.942 9.128 9.128 0 001.962-3.001 9.562 9.562 0 00.691-3.576 9.566 9.566 0 00-.691-3.576 9.138 9.138 0 00-1.962-3.001 8.54 8.54 0 00-2.917-1.941 8.15 8.15 0 00-3.403-.57h-99.263c-2.208.105-4.292 1.109-5.819 2.802-1.527 1.693-2.379 3.944-2.379 6.286 0 2.342.852 4.594 2.379 6.286 1.527 1.693 3.611 2.697 5.819 2.803h12.254a8.136 8.136 0 00-3.403.57 8.534 8.534 0 00-2.917 1.942 9.134 9.134 0 00-1.962 3 9.57 9.57 0 00-.691 3.576c0 1.23.235 2.446.691 3.577a9.134 9.134 0 001.962 3 8.534 8.534 0 002.917 1.942 8.136 8.136 0 003.403.57h-17.153a8.164 8.164 0 00-3.402.57 8.539 8.539 0 00-2.917 1.942 9.118 9.118 0 00-1.962 3 9.571 9.571 0 00-.691 3.577c0 1.229.235 2.446.691 3.576a9.123 9.123 0 001.962 3.001 8.521 8.521 0 002.917 1.941 8.132 8.132 0 003.402.57h99.264a8.132 8.132 0 003.402-.57 8.512 8.512 0 002.917-1.941 9.125 9.125 0 001.963-3.001 9.566 9.566 0 00.691-3.576c0-1.23-.235-2.446-.691-3.577a9.121 9.121 0 00-1.963-3 8.529 8.529 0 00-2.917-1.942 8.164 8.164 0 00-3.402-.57h17.152a8.136 8.136 0 003.403-.57 8.534 8.534 0 002.917-1.942 9.118 9.118 0 001.962-3 9.571 9.571 0 00.691-3.577 9.57 9.57 0 00-.691-3.576 9.118 9.118 0 00-1.962-3 8.534 8.534 0 00-2.917-1.942 8.136 8.136 0 00-3.403-.57z" fill="#fff"/><path opacity=".639" d="M769 393.562c-7.55 2.458-15.461 4.581-23.267 6.697-28.833 7.689-58.102 15.444-89.078 18.083-58.176 4.889-118.209-8.506-175.367-.147-47.88 6.979-87.477 24.12-134.254 33.643-21.749 4.427-44.38 6.162-67.211 6.162h-2.949a517.851 517.851 0 01-8.42-.134c-23.149-.549-61.835-3.262-84.529-6.027C112.27 443.133 54.785 431.966 0 402.584c159.514-18.406 488.094-46.655 769-9.022z" fill="#1C2640"/><path opacity=".657" d="M740.269 167.808v-43.131h-24.168v43.131h-28.617v-66.72h-20.986v-49.87h-17.17V0h-35.612v51.219h-17.17v49.869h-20.349V41.11h-11.446V10.782h-6.996v30.326h-40.699v191.397h-31.161v-20.218h-19.078v20.218h-31.161v-64.698h-55.961v-43.131h-24.166v43.131h-1.272v82.893H328.82v-48.525h-30.525v48.525h-25.437V101.088h-19.714v-49.87l-21.423-40.435h-28.308l-22.766 40.436v49.869h-19.078v263.507h607.316V167.809l-28.616-.001z" fill="#1C2640"/><path opacity=".4" d="M200.362 116.589h-26.71v16.175h26.71v-16.175zM233.429 132.764h26.71V116.59h-26.71v16.174zM200.362 148.264h-26.71v16.174h26.71v-16.174zM233.429 164.438h26.71v-16.174h-26.71v16.174zM200.362 179.939h-26.71v16.174h26.71v-16.174zM233.429 196.113h26.71v-16.174h-26.71v16.174zM200.362 211.614h-26.71v16.174h26.71v-16.174zM233.429 227.788h26.71v-16.174h-26.71v16.174zM200.362 243.288h-26.71v16.174h26.71v-16.174zM233.429 259.462h26.71v-16.174h-26.71v16.174zM200.362 274.963h-26.71v16.174h26.71v-16.174zM233.429 291.137h26.71v-16.174h-26.71v16.174zM200.362 306.637h-26.71v16.175h26.71v-16.175zM233.429 322.812h26.709v-16.175h-26.709v16.175zM344.718 266.876h-62.321v8.087h62.321v-8.087zM344.718 279.007h-62.321v8.087h62.321v-8.087zM344.718 291.137h-62.321v8.087h62.321v-8.087zM507.517 270.919h-62.321v8.087h62.321v-8.087zM507.517 283.05h-62.321v8.087h62.321v-8.087zM507.517 295.181h-62.321v8.087h62.321v-8.087zM344.718 303.268h-62.321v8.087h62.321v-8.087zM344.718 315.398h-62.321v8.087h62.321v-8.087zM344.718 327.529h-62.321v8.087h62.321v-8.087zM384.782 183.309h-17.17v23.587h17.17v-23.587zM405.132 206.896h17.17v-23.587h-17.17v23.587zM384.782 221.048h-17.17v23.588h17.17v-23.588zM405.132 244.636h17.17v-23.587h-17.17v23.587zM384.782 258.788h-17.17v23.588h17.17v-23.588zM405.132 282.376h17.17v-23.588h-17.17v23.588zM384.782 296.529h-17.17v23.587h17.17v-23.587zM405.132 320.116h17.17v-23.587h-17.17v23.587zM558.202 56.61h-22.894v31h22.894v-31zM558.202 101.089h-22.894v31.001h22.894v-31.001zM558.202 145.568h-22.894v31.001h22.894v-31.001zM558.202 190.048h-22.894v31h22.894v-31zM558.202 234.527h-22.894v31.001h22.894v-31.001zM558.202 279.007h-22.894v31h22.894v-31zM674.449 119.959h-85.215v26.284h85.215v-26.284zM674.768 176.569h-85.216v26.283h85.216v-26.283zM675.086 233.179h-85.215v26.284h85.215v-26.284zM675.403 289.789h-85.215v26.284h85.215v-26.284zM203.768 65.371h-11.447v25.61h11.447V65.37zM626.098 64.046h-11.447v25.609h11.447v-25.61zM651.112 64.046h-11.447v25.609h11.447v-25.61zM636.937 15.004H625.49v25.609h11.447v-25.61zM224.613 65.371h-11.446v25.61h11.446V65.37zM245.458 65.371h-11.446v25.61h11.446V65.37zM768.886 183.309h-28.617v39.087h28.617v-39.087zM768.886 239.918h-28.617v39.088h28.617v-39.088zM768.886 296.529h-28.617v39.087h28.617v-39.087z" fill="#fff"/><path d="M727.41 391.721s-15.688-56.448 2.945-97.996c7.822-17.434 10.416-37.012 6.804-55.934a156.646 156.646 0 00-7.472-26.283" stroke="#535461" stroke-width="2" stroke-miterlimit="10"/><path d="M741.28 185.283c0 6.921-11.822 26.957-11.822 26.957s-11.822-20.063-11.822-26.957a13.19 13.19 0 01.829-4.873 12.616 12.616 0 012.546-4.152 11.79 11.79 0 013.864-2.782 11.245 11.245 0 014.58-.979c1.573 0 3.13.333 4.581.979a11.79 11.79 0 013.864 2.782 12.616 12.616 0 012.546 4.152c.579 1.55.861 3.206.829 4.873h.005zM760.815 223.603c-3.548 5.809-23.758 15.837-23.758 15.837s.369-23.648 3.919-29.457a12.272 12.272 0 013.191-3.635 11.506 11.506 0 014.272-2.036 11.17 11.17 0 014.683-.118c1.553.292 3.035.911 4.358 1.819a12.169 12.169 0 013.35 3.47 12.944 12.944 0 011.815 4.576c.311 1.639.31 3.327-.004 4.965a12.934 12.934 0 01-1.824 4.572l-.002.007zM759.963 289.09c-5.831 3.114-28.05.964-28.05.964s11.58-20.218 17.411-23.332a11.308 11.308 0 014.445-1.307 11.177 11.177 0 014.577.594 11.652 11.652 0 014.015 2.406 12.434 12.434 0 012.841 3.851 13.12 13.12 0 011.234 4.709 13.236 13.236 0 01-.561 4.852 12.757 12.757 0 01-2.27 4.255 11.957 11.957 0 01-3.634 3.01l-.008-.002zM748.79 338.48c-5.246 4.109-27.497 5.971-27.497 5.971s8.191-21.997 13.437-26.115a11.554 11.554 0 014.177-2.111c1.51-.405 3.081-.49 4.622-.25s3.022.8 4.358 1.649a12.086 12.086 0 013.427 3.295 12.887 12.887 0 011.971 4.437c.374 1.603.446 3.268.212 4.9a13.026 13.026 0 01-1.579 4.61 12.286 12.286 0 01-3.127 3.614h-.001zM712.236 240.761c4.681 4.818 26.5 9.812 26.5 9.812s-5.342-22.961-10.023-27.786a11.78 11.78 0 00-3.872-2.657 11.241 11.241 0 00-4.537-.884 11.258 11.258 0 00-4.511 1.023 11.82 11.82 0 00-3.798 2.774 12.624 12.624 0 00-2.507 4.104 13.19 13.19 0 00-.835 4.808c.023 1.645.351 3.27.965 4.781a12.592 12.592 0 002.618 4.025zM699.887 298.719c5.831 3.113 28.051.963 28.051.963s-11.58-20.217-17.412-23.331a11.214 11.214 0 00-8.897-.522c-2.916 1.063-5.325 3.291-6.713 6.209a13.214 13.214 0 00-.717 9.412c.929 3.116 2.97 5.725 5.688 7.269zM695.124 356.784c5.246 4.109 27.497 5.972 27.497 5.972s-8.191-21.998-13.437-26.115a11.539 11.539 0 00-4.177-2.111 11.164 11.164 0 00-4.622-.251c-1.541.24-3.022.801-4.358 1.649a12.104 12.104 0 00-3.427 3.296 12.887 12.887 0 00-1.971 4.437 13.281 13.281 0 00-.212 4.899 13.012 13.012 0 001.579 4.61 12.278 12.278 0 003.127 3.615l.001-.001z" fill="#fff" fill-opacity=".7"/><path d="M656.643 386.229s-8.432-30.327 1.584-52.661c4.256-9.336 5.539-19.883 3.657-30.058a84.282 84.282 0 00-4.013-14.105" stroke="#535461" stroke-width="2" stroke-miterlimit="10"/><path d="M664.096 275.286c0 3.72-6.359 14.496-6.359 14.496s-6.36-10.783-6.36-14.496c0-1.787.67-3.502 1.863-4.765 1.193-1.264 2.81-1.974 4.497-1.974 1.686 0 3.304.71 4.497 1.974 1.192 1.263 1.862 2.978 1.862 4.765zM674.596 295.883c-1.908 3.121-12.77 8.512-12.77 8.512s.197-12.71 2.105-15.831a6.615 6.615 0 011.705-2.011 6.185 6.185 0 012.313-1.14 6.011 6.011 0 012.55-.085c.847.155 1.655.49 2.376.985a6.53 6.53 0 011.82 1.895c.48.755.81 1.606.971 2.5a7.17 7.17 0 01-.035 2.704 6.945 6.945 0 01-1.035 2.471zM674.138 331.067c-3.135 1.672-15.078.52-15.078.52s6.226-10.864 9.354-12.535a6.027 6.027 0 014.739-.215c1.546.578 2.822 1.767 3.56 3.319a7.105 7.105 0 01.404 5.008c-.48 1.662-1.548 3.063-2.979 3.91v-.007zM668.128 357.614c-2.824 2.209-14.779 3.208-14.779 3.208s4.401-11.821 7.224-14.032a6.075 6.075 0 014.628-1.042c1.611.297 3.053 1.239 4.026 2.633a7.042 7.042 0 011.196 4.85c-.204 1.72-1.026 3.29-2.295 4.384v-.001zM648.49 305.115c2.544 2.587 14.239 5.276 14.239 5.276s-2.868-12.339-5.387-14.928a6.374 6.374 0 00-2.085-1.565 6.064 6.064 0 00-2.499-.57 6.066 6.066 0 00-2.509.52 6.337 6.337 0 00-2.112 1.524 6.813 6.813 0 00-1.377 2.282 7.11 7.11 0 00.193 5.303 6.73 6.73 0 001.537 2.164v-.006zM641.839 336.25c3.135 1.671 15.078.519 15.078.519s-6.226-10.864-9.355-12.535a6.033 6.033 0 00-4.738-.215c-1.546.579-2.822 1.768-3.561 3.32a7.101 7.101 0 00-.403 5.007c.48 1.662 1.547 3.063 2.979 3.911v-.007zM639.295 367.46c2.824 2.209 14.779 3.208 14.779 3.208s-4.426-11.828-7.224-14.038a6.074 6.074 0 00-4.64-1.066c-1.619.292-3.068 1.237-4.044 2.637a7.04 7.04 0 00-1.193 4.87c.21 1.726 1.043 3.298 2.322 4.389z" fill="#fff" fill-opacity=".7"/><path opacity=".217" d="M329.888 32.133h-4.375c.414.02.827-.05 1.215-.204.388-.154.742-.39 1.041-.693.3-.303.538-.667.701-1.071a3.413 3.413 0 000-2.554 3.253 3.253 0 00-.701-1.071 3.04 3.04 0 00-1.041-.693 2.91 2.91 0 00-1.215-.204h-35.441a2.991 2.991 0 00-2.077 1 3.354 3.354 0 00-.849 2.245c0 .836.304 1.64.849 2.244a2.992 2.992 0 002.077 1.001h4.375c-.413-.02-.827.05-1.214.204-.388.154-.742.39-1.042.693a3.25 3.25 0 00-.7 1.071 3.413 3.413 0 000 2.554c.162.403.401.768.7 1.071.3.303.654.54 1.042.693.387.155.801.224 1.214.204h-6.124c-.413-.02-.827.05-1.214.204-.388.154-.742.39-1.042.693a3.251 3.251 0 00-.7 1.071 3.413 3.413 0 000 2.554c.162.403.401.768.7 1.071.3.303.654.54 1.042.693.387.154.801.224 1.214.204h35.441c.414.02.827-.05 1.215-.204a3.04 3.04 0 001.041-.693c.3-.303.538-.668.701-1.071a3.412 3.412 0 000-2.554 3.254 3.254 0 00-.701-1.071 3.039 3.039 0 00-1.041-.694 2.91 2.91 0 00-1.215-.203h6.124c.414.02.827-.05 1.215-.204a3.04 3.04 0 001.041-.693c.3-.303.538-.668.701-1.071a3.413 3.413 0 000-2.554 3.254 3.254 0 00-.701-1.071 3.04 3.04 0 00-1.041-.693 2.909 2.909 0 00-1.215-.204zM752.784 7.198h-4.375c.414.02.827-.05 1.215-.204.387-.154.742-.39 1.041-.693.3-.303.538-.668.701-1.071a3.431 3.431 0 000-2.554 3.254 3.254 0 00-.701-1.071 3.048 3.048 0 00-1.041-.694 2.91 2.91 0 00-1.215-.203h-35.441a2.992 2.992 0 00-2.077 1 3.355 3.355 0 00-.85 2.245c0 .836.305 1.64.85 2.244a2.992 2.992 0 002.077 1h4.375a2.91 2.91 0 00-1.215.204c-.387.154-.742.39-1.041.693-.3.304-.538.668-.701 1.072a3.431 3.431 0 000 2.553c.163.404.401.769.701 1.072.299.303.654.539 1.041.693a2.91 2.91 0 001.215.204h-6.124c-.414-.02-.827.049-1.215.203a3.05 3.05 0 00-1.041.693c-.3.304-.538.668-.701 1.072a3.432 3.432 0 000 2.553c.163.404.401.768.701 1.072.299.303.654.539 1.041.693.388.154.801.223 1.215.203h35.441a2.991 2.991 0 002.077-1c.545-.604.85-1.408.85-2.244 0-.837-.305-1.64-.85-2.245a2.991 2.991 0 00-2.077-1h6.124c.414.02.827-.05 1.215-.204.387-.154.742-.39 1.041-.693.3-.303.538-.668.701-1.072a3.432 3.432 0 000-2.553 3.254 3.254 0 00-.701-1.072 3.048 3.048 0 00-1.041-.693 2.91 2.91 0 00-1.215-.203z" fill="#fff"/></g></symbol><symbol id="clipboard" viewBox="0 0 384 512"><path d="M336 64h-88.6c.4-2.6.6-5.3.6-8 0-30.9-25.1-56-56-56s-56 25.1-56 56c0 2.7.2 5.4.6 8H48C21.5 64 0 85.5 0 112v352c0 26.5 21.5 48 48 48h288c26.5 0 48-21.5 48-48V112c0-26.5-21.5-48-48-48zM192 32c13.3 0 24 10.7 24 24s-10.7 24-24 24-24-10.7-24-24 10.7-24 24-24zm160 432c0 8.8-7.2 16-16 16H48c-8.8 0-16-7.2-16-16V112c0-8.8 7.2-16 16-16h48v20c0 6.6 5.4 12 12 12h168c6.6 0 12-5.4 12-12V96h48c8.8 0 16 7.2 16 16z"/></symbol><symbol id="close" viewBox="0 0 387 384"><path d="M341.167 306.049L228.03 192.912 341.756 79.185c3.142-3.141 3.155-8.217.03-11.343l-22.629-22.627c-3.126-3.126-8.202-3.113-11.343.03L194.088 158.97 80.951 45.833c-3.125-3.125-8.201-3.112-11.343.03L46.863 68.608c-3.143 3.142-3.155 8.218-.03 11.343L159.97 193.088 46.244 306.815c-3.142 3.141-3.155 8.217-.03 11.343l22.628 22.627c3.126 3.126 8.202 3.113 11.343-.03L193.912 227.03l113.137 113.137c3.125 3.125 8.201 3.112 11.343-.03l22.745-22.745c3.142-3.142 3.155-8.218.03-11.343z"/></symbol><symbol id="cog" viewBox="0 0 20 20"><path d="M18.828 11.79l-1.25-.742c0-.274.04-.703.04-.977 0-.234-.04-.664-.04-.937l1.25-.742c.39-.196.547-.664.43-1.055a9.723 9.723 0 00-2.227-3.906.947.947 0 00-1.172-.156l-1.25.742a7.25 7.25 0 00-1.68-.977V1.595c0-.469-.273-.82-.702-.938a9.699 9.699 0 00-4.493 0c-.43.118-.703.47-.703.938V3.04a7.25 7.25 0 00-1.68.977l-1.25-.742a.947.947 0 00-1.171.156A9.724 9.724 0 00.703 7.337c-.117.39.04.86.43 1.055l1.25.742c0 .273-.04.703-.04.937 0 .274.04.704.04.977l-1.25.742c-.39.196-.547.664-.43 1.055A9.724 9.724 0 002.93 16.75a.947.947 0 001.172.156l1.25-.742c.43.352 1.171.781 1.68.977v1.445c0 .469.273.82.702.938a9.698 9.698 0 004.493 0c.43-.118.703-.47.703-.938v-1.445a7.252 7.252 0 001.68-.977l1.25.742c.39.235.859.157 1.171-.156a9.724 9.724 0 002.227-3.906c.117-.39-.04-.86-.43-1.055zm-2.539 3.906l-1.836-1.054c-1.055.937-1.406 1.133-2.773 1.64v2.07a8.216 8.216 0 01-1.68.196c-.508 0-1.25-.078-1.719-.195v-2.07c-1.328-.47-1.719-.704-2.773-1.641l-1.836 1.054a9.382 9.382 0 01-1.719-2.968l1.836-1.016c-.273-1.406-.273-1.836 0-3.242L1.953 7.454a9.381 9.381 0 011.719-2.969L5.508 5.54C6.562 4.603 6.953 4.368 8.28 3.9V1.83c.469-.118 1.211-.196 1.719-.196.469 0 1.21.078 1.68.195V3.9c1.328.47 1.718.704 2.773 1.641l1.836-1.055a9.382 9.382 0 011.719 2.97L16.172 8.47c.273 1.406.273 1.836 0 3.242l1.836 1.016a9.382 9.382 0 01-1.719 2.968zM10 6.321c-2.07 0-3.75 1.72-3.75 3.75 0 2.07 1.68 3.75 3.75 3.75 2.031 0 3.75-1.68 3.75-3.75 0-2.03-1.719-3.75-3.75-3.75zm0 6.25a2.468 2.468 0 01-2.5-2.5c0-1.367 1.094-2.5 2.5-2.5 1.367 0 2.5 1.133 2.5 2.5 0 1.407-1.133 2.5-2.5 2.5z" fill="currentColor"/></symbol><symbol id="copy" viewBox="0 0 18 21"><path d="m17.1641 3.45911-1.9922-1.99219c-.3125-.3125-.8985-.585939-1.3281-.585939h-6.7188c-1.05469 0-1.875.859379-1.875 1.874999v1.875h-3.125c-1.05469 0-1.875.85938-1.875 1.875v12.50002c0 1.0547.82031 1.875 1.875 1.875h8.75c1.0156 0 1.875-.8203 1.875-1.875v-1.875h3.125c1.0156 0 1.875-.8203 1.875-1.875v-10.46877c0-.42969-.2734-1.01562-.5859-1.32812zm-3.1641-1.28907c.0781.03907.1953.07813.2734.15625l2.0313 2.03125c.0781.07813.1172.19532.1562.27344h-2.4609zm-2.5 16.83596c0 .3515-.3125.625-.625.625h-8.75c-.35156 0-.625-.2735-.625-.625v-12.50002c0-.3125.27344-.625.625-.625h3.125v9.37502c0 1.0547.82031 1.875 1.875 1.875h4.375zm5-3.75c0 .3515-.3125.625-.625.625h-8.75c-.35156 0-.625-.2735-.625-.625v-12.50002c0-.3125.27344-.625.625-.625h5.625v2.8125c0 .54688.3906.9375.9375.9375h2.8125z" fill="currentColor"/></symbol><symbol id="ellipses" viewBox="0 0 15 4"><path d="M9 2C9 1.203 8.297.5 7.5.5 6.656.5 6 1.203 6 2c0 .844.656 1.5 1.5 1.5C8.297 3.5 9 2.844 9 2zM13.125.5c-.844 0-1.5.703-1.5 1.5 0 .844.656 1.5 1.5 1.5.797 0 1.5-.656 1.5-1.5 0-.797-.703-1.5-1.5-1.5zM1.875.5c-.844 0-1.5.703-1.5 1.5 0 .844.656 1.5 1.5 1.5.797 0 1.5-.656 1.5-1.5 0-.797-.703-1.5-1.5-1.5z" fill="currentColor"/></symbol><symbol id="ellipsis-v" viewBox="0 0 64 512"><path d="M32 224c17.7 0 32 14.3 32 32s-14.3 32-32 32-32-14.3-32-32 14.3-32 32-32zM0 136c0 17.7 14.3 32 32 32s32-14.3 32-32-14.3-32-32-32-32 14.3-32 32zm0 240c0 17.7 14.3 32 32 32s32-14.3 32-32-14.3-32-32-32-32 14.3-32 32z"/></symbol><symbol id="envelope" viewBox="0 0 512 512"><path d="M464 64H48C21.5 64 0 85.5 0 112v288c0 26.5 21.5 48 48 48h416c26.5 0 48-21.5 48-48V112c0-26.5-21.5-48-48-48zM48 96h416c8.8 0 16 7.2 16 16v41.4c-21.9 18.5-53.2 44-150.6 121.3-16.9 13.4-50.2 45.7-73.4 45.3-23.2.4-56.6-31.9-73.4-45.3C85.2 197.4 53.9 171.9 32 153.4V112c0-8.8 7.2-16 16-16zm416 320H48c-8.8 0-16-7.2-16-16V195c22.8 18.7 58.8 47.6 130.7 104.7 20.5 16.4 56.7 52.5 93.3 52.3 36.4.3 72.3-35.5 93.3-52.3 71.9-57.1 107.9-86 130.7-104.7v205c0 8.8-7.2 16-16 16z"/></symbol><symbol id="eye-slash" viewBox="0 0 21 16">
  <path d="M20.8125 14.7188L2.125 0.125C2.03125 0.0625 1.90625 0 1.8125 0C1.65625 0 1.5 0.09375 1.40625 0.1875L1.09375 0.59375C1.03125 0.65625 0.96875 0.8125 0.96875 0.90625C0.96875 1.03125 1.0625 1.21875 1.1875 1.28125L19.875 15.9062C19.9375 15.9688 20.0625 16 20.1875 16C20.3125 16 20.4688 15.9375 20.5625 15.8125L20.875 15.4375C20.9375 15.375 21 15.2188 21 15.125C21 15 20.9062 14.8125 20.8125 14.7188ZM10.25 4.59375L14.4688 7.875C14.4062 6 12.875 4.5 11 4.5C10.7812 4.53125 10.4688 4.5625 10.25 4.59375ZM11.7188 11.4375L7.5 8.15625C7.5625 10.0312 9.09375 11.5 11 11.5C11.1875 11.5 11.5 11.4688 11.7188 11.4375ZM11 3.5C14.0625 3.5 16.9062 5.21875 18.4062 8C18.0938 8.59375 17.5 9.4375 17.0312 9.90625L18.2188 10.8125C18.7812 10.2188 19.5 9.1875 19.875 8.46875C19.9375 8.34375 20 8.15625 20 8C20 7.875 19.9375 7.6875 19.875 7.5625C18.1875 4.25 14.8125 2 11 2C9.84375 2 8.75 2.21875 7.71875 2.59375L9.15625 3.75C9.75 3.59375 10.375 3.5 11 3.5ZM11 12.5C7.90625 12.5 5.0625 10.7812 3.5625 8C3.875 7.4375 4.46875 6.59375 4.9375 6.125L3.75 5.21875C3.1875 5.8125 2.46875 6.84375 2.09375 7.5625C2.03125 7.6875 2 7.875 2 8.03125C2 8.15625 2.03125 8.34375 2.09375 8.46875C3.78125 11.7812 7.15625 14 11 14C12.125 14 13.2188 13.7812 14.25 13.4375L12.8125 12.2812C12.2188 12.4375 11.5938 12.5 11 12.5Z" fill="currentColor"/>
</symbol><symbol id="folder" viewBox="0 0 16 12"><path d="m14.5 2h-6l-1.71875-1.6875c-.1875-.1875-.4375-.3125-.71875-.3125h-4.5625c-.84375 0-1.5.6875-1.5 1.5v9c0 .8438.65625 1.5 1.5 1.5h13c.8125 0 1.5-.6562 1.5-1.5v-7c0-.8125-.6875-1.5-1.5-1.5zm0 8.5h-13v-9h4.375l1.6875 1.71875c.1875.1875.4375.28125.71875.28125h6.21875z" fill="currentColor"/></symbol><symbol id="folders" viewBox="0 0 20 16"><path d="m18.5 2h-6l-1.7188-1.6875c-.1874-.1875-.4374-.3125-.7187-.3125h-4.5625c-.84375 0-1.5.6875-1.5 1.5v2.5h-2.5c-.84375 0-1.5.6875-1.5 1.5v9c0 .8438.65625 1.5 1.5 1.5h13c.8125 0 1.5-.6562 1.5-1.5v-2.5h2.5c.8125 0 1.5-.6562 1.5-1.5v-7c0-.8125-.6875-1.5-1.5-1.5zm-4 12.5h-13v-9h2.5v5c0 .8438.65625 1.5 1.5 1.5h9zm4-4h-13v-9h4.375l1.6875 1.71875c.1875.1875.4375.28125.7187.28125h6.2188z" fill="currentColor"/></symbol><symbol id="home" viewBox="0 0 576 512"><path d="M541 229.16l-61-49.83v-77.4a6 6 0 0 0-6-6h-20a6 6 0 0 0-6 6v51.33L308.19 39.14a32.16 32.16 0 0 0-40.38 0L35 229.16a8 8 0 0 0-1.16 11.24l10.1 12.41a8 8 0 0 0 11.2 1.19L96 220.62v243a16 16 0 0 0 16 16h128a16 16 0 0 0 16-16v-128l64 .3V464a16 16 0 0 0 16 16l128-.33a16 16 0 0 0 16-16V220.62L520.86 254a8 8 0 0 0 11.25-1.16l10.1-12.41a8 8 0 0 0-1.21-11.27zm-93.11 218.59h.1l-96 .3V319.88a16.05 16.05 0 0 0-15.95-16l-96-.27a16 16 0 0 0-16.05 16v128.14H128V194.51L288 63.94l160 130.57z"/></symbol><symbol id="kebab" viewBox="0 0 4 13"><path d="M2 5.25c-.703 0-1.25.586-1.25 1.25 0 .703.547 1.25 1.25 1.25.664 0 1.25-.547 1.25-1.25 0-.664-.586-1.25-1.25-1.25zM.75 1.812c0 .704.547 1.25 1.25 1.25.664 0 1.25-.546 1.25-1.25 0-.664-.586-1.25-1.25-1.25-.703 0-1.25.586-1.25 1.25zm0 9.376c0 .703.547 1.25 1.25 1.25.664 0 1.25-.547 1.25-1.25 0-.665-.586-1.25-1.25-1.25-.703 0-1.25.585-1.25 1.25z" fill="currentColor"/></symbol><symbol id="logo-cs-name" viewBox="0 0 123 29"><path d="M.747 11.538c.004-1.292.23-2.573.666-3.788a10.544 10.544 0 011.953-3.391 9.84 9.84 0 013.152-2.422 9.43 9.43 0 014.232-.925 8.812 8.812 0 014.824 1.278 7.935 7.935 0 012.99 3.328l-2.102 1.367a6.123 6.123 0 00-1.14-1.695 5.852 5.852 0 00-1.45-1.1 6.226 6.226 0 00-1.611-.594 7.723 7.723 0 00-1.628-.178 6.4 6.4 0 00-3.093.728 7.158 7.158 0 00-2.264 1.902A8.236 8.236 0 003.9 8.693a9.88 9.88 0 00-.46 2.956 9.16 9.16 0 00.546 3.165 8.73 8.73 0 001.526 2.668 7.427 7.427 0 002.308 1.842 6.259 6.259 0 002.9.684 7.332 7.332 0 001.702-.208 6.222 6.222 0 001.672-.67 7.143 7.143 0 001.494-1.155 5.656 5.656 0 001.14-1.679l2.22 1.215a6.565 6.565 0 01-1.406 2.095 8.894 8.894 0 01-2.041 1.53c-.761.417-1.572.736-2.412.951a9.974 9.974 0 01-2.486.327 8.378 8.378 0 01-3.967-.951 10.594 10.594 0 01-3.122-2.482 11.362 11.362 0 01-2.042-3.476 11.28 11.28 0 01-.725-3.967zm21.13 10.698V6.725h2.605v15.51h-2.604zm0-18.424V.544h2.605v3.268h-2.604zM36.677 21.46a12.05 12.05 0 01-1.495.609 7.601 7.601 0 01-1.065.268 6.74 6.74 0 01-1.2.104 3.943 3.943 0 01-2.455-.788 2.876 2.876 0 01-1.037-2.451V8.775h-2.101v-2.05h2.101v-5.17h2.605v5.17h3.462v2.05H32.03v9.627a1.623 1.623 0 00.562 1.248c.34.259.757.395 1.184.386.48.005.957-.08 1.405-.253.301-.11.593-.245.873-.402l.623 2.08zm3.136 4.993a10.229 10.229 0 001.36.12c.223.003.442-.053.636-.164a1.75 1.75 0 00.563-.639c.24-.426.453-.868.636-1.322.237-.566.533-1.304.888-2.215l-6.54-15.508h2.694l5.268 13.163 4.795-13.163h2.486L45.08 26.306a4.511 4.511 0 01-1.376 1.828 4.065 4.065 0 01-2.649.787c-.183 0-.365-.01-.547-.03a6.79 6.79 0 01-.696-.118v-2.32zM67.987 5.566a4.387 4.387 0 00-.947-.803 8.413 8.413 0 00-1.332-.698 9.335 9.335 0 00-1.612-.505 8.403 8.403 0 00-1.82-.193 5.696 5.696 0 00-3.596.925 3.064 3.064 0 00-1.14 2.525c-.018.496.095.988.326 1.427.25.407.602.74 1.021.965a7.773 7.773 0 001.732.698c.69.199 1.51.407 2.456.625.997.213 1.98.486 2.944.817a8.562 8.562 0 012.249 1.14 4.576 4.576 0 011.42 1.664c.347.753.514 1.577.489 2.407a5.53 5.53 0 01-.592 2.63 5.265 5.265 0 01-1.612 1.842 6.972 6.972 0 01-2.412 1.07c-.989.235-2.002.35-3.019.341a13.888 13.888 0 01-4.605-.758 12.85 12.85 0 01-3.95-2.214l1.272-2.258c.37.382.782.721 1.228 1.01.542.358 1.116.661 1.716.907.671.277 1.365.495 2.073.654.762.17 1.542.255 2.323.252a6.427 6.427 0 003.49-.801 2.667 2.667 0 001.247-2.408 2.679 2.679 0 00-.402-1.5c-.302-.439-.701-.8-1.167-1.055a8.973 8.973 0 00-1.909-.788c-.76-.227-1.623-.46-2.59-.698a25.817 25.817 0 01-2.811-.832 7.652 7.652 0 01-2.028-1.07 4.032 4.032 0 01-1.228-1.515 5.044 5.044 0 01-.414-2.14 6.055 6.055 0 01.563-2.674 5.61 5.61 0 011.568-1.961 6.834 6.834 0 012.398-1.202c.982-.275 1.998-.41 3.018-.402a10.74 10.74 0 013.847.654 10.762 10.762 0 013.05 1.751l-1.244 2.17zm10.032 16.966a4.315 4.315 0 01-3.67-1.634c-.828-1.09-1.242-2.714-1.242-4.873v-9.3h2.604v8.795c0 3.17 1.096 4.754 3.286 4.754A5.006 5.006 0 0082 19.25a6.045 6.045 0 002.086-2.809V6.725h2.604v12.302c0 .616.277.933.83.95v2.259c-.296.04-.528.065-.696.077-.168.012-.33.017-.488.015a1.867 1.867 0 01-1.287-.463 1.562 1.562 0 01-.548-1.144l-.059-1.812a7.176 7.176 0 01-2.722 2.689 7.499 7.499 0 01-3.702.934zm13.022-.297V6.725h2.604v15.51H91.04zm0-18.423V.544h2.604v3.268H91.04zM105.84 21.46a12.088 12.088 0 01-1.494.609 7.653 7.653 0 01-1.066.267c-.396.07-.797.105-1.199.104a3.942 3.942 0 01-2.456-.788 2.876 2.876 0 01-1.036-2.451V8.775h-2.103v-2.05h2.101v-5.17h2.605v5.17h3.462v2.05h-3.462v9.627a1.623 1.623 0 00.562 1.248c.34.259.757.395 1.184.386.48.005.957-.08 1.405-.253.301-.11.593-.245.873-.402l.624 2.079zm9.057 1.07a7.843 7.843 0 01-3.196-.64 7.554 7.554 0 01-2.486-1.738 7.931 7.931 0 01-1.612-2.57 8.432 8.432 0 01-.577-3.105 8.313 8.313 0 01.577-3.09 7.85 7.85 0 011.628-2.556 7.727 7.727 0 015.695-2.375 7.56 7.56 0 015.623 2.392 7.685 7.685 0 011.553 2.525c.364.954.55 1.966.548 2.987 0 .217-.005.415-.015.594-.005.14-.02.278-.044.416h-12.819c.049.73.229 1.445.533 2.11.28.612.67 1.166 1.151 1.635a5.346 5.346 0 001.612 1.07 4.804 4.804 0 001.909.385c.47 0 .938-.065 1.391-.194a6.039 6.039 0 001.273-.52 4.416 4.416 0 001.05-.802c.3-.308.536-.671.696-1.07l2.249.624a5.73 5.73 0 01-1.051 1.575 6.977 6.977 0 01-1.535 1.234 8.226 8.226 0 01-4.153 1.116v-.004zm5.297-9.094a5.612 5.612 0 00-.548-2.036 5.427 5.427 0 00-1.151-1.59 5.155 5.155 0 00-1.612-1.025 5.152 5.152 0 00-1.953-.371 5.157 5.157 0 00-1.954.371 5.023 5.023 0 00-1.612 1.04c-.47.456-.851.995-1.124 1.59a5.85 5.85 0 00-.518 2.021h10.472z" fill="currentColor"/></symbol><symbol id="logo-cs-tree" viewBox="0 0 28 39">
<path d="M27.7429 19.6169C27.7663 20.699 27.4897 21.7663 26.9439 22.6997C26.3923 23.6242 25.6219 24.3978 24.701 24.9516L16.9878 29.4216C16.9264 29.4516 16.8965 29.4516 16.8343 29.4832C16.3059 29.7506 15.7493 29.9575 15.1748 30.0997V38.5279H12.5958V30.1075C11.9867 29.9693 11.3981 29.7519 10.845 29.4609C8.29514 28.0736 5.52884 26.4683 3.07264 24.9578C2.1258 24.4034 1.33374 23.618 0.769949 22.6742C0.23726 21.7368 -0.0282858 20.6703 0.00238598 19.5915V10.6724C-0.0122903 9.56698 0.274371 8.47857 0.831354 7.52494C1.39978 6.6407 2.15533 5.89313 3.04424 5.33543C3.07417 5.30537 3.10564 5.30537 3.16705 5.27378L10.7867 0.832336L10.878 0.80228C11.8038 0.297344 12.8366 0.0222533 13.8899 0C14.9592 0.0036965 16.0085 0.29082 16.9318 0.832336L24.6749 5.30229C25.6245 5.82573 26.419 6.59235 26.9776 7.52417C27.5036 8.48772 27.7683 9.57309 27.7452 10.6716V19.6216L27.7429 19.6169ZM7.67572 14.6499C7.52664 14.5668 7.39558 14.4547 7.29024 14.3201C7.1849 14.1855 7.1074 14.0311 7.06229 13.866C7.01717 13.7009 7.00535 13.5284 7.02752 13.3587C7.04969 13.189 7.1054 13.0254 7.19139 12.8776C7.27738 12.7297 7.3919 12.6006 7.52825 12.4979C7.6646 12.3951 7.82001 12.3207 7.98539 12.279C8.15076 12.2374 8.32275 12.2293 8.49128 12.2553C8.6598 12.2812 8.82146 12.3408 8.96676 12.4303L12.5935 14.5289V10.2724C12.6017 9.93419 12.7413 9.6126 12.9824 9.3763C13.2236 9.14001 13.5472 9.00774 13.8842 9.00774C14.2211 9.00774 14.5447 9.14001 14.7859 9.3763C15.027 9.6126 15.1666 9.93419 15.1748 10.2724V20.2682L18.7693 18.1696C18.9146 18.08 19.0763 18.0205 19.2448 17.9945C19.4133 17.9685 19.5853 17.9766 19.7507 18.0183C19.9161 18.0599 20.0715 18.1343 20.2078 18.2371C20.3442 18.3399 20.4587 18.469 20.5447 18.6168C20.6307 18.7647 20.6864 18.9282 20.7085 19.098C20.7307 19.2677 20.7189 19.4402 20.6738 19.6053C20.6287 19.7704 20.5512 19.9247 20.4458 20.0594C20.3405 20.194 20.2094 20.3061 20.0604 20.3892L15.1748 23.2283V27.4232C15.3283 27.3615 15.5118 27.269 15.696 27.1766L23.3478 22.7351C23.9168 22.4063 24.3935 21.9381 24.7333 21.3741C25.0259 20.8354 25.1743 20.2297 25.1639 19.6162V10.6724C25.1888 10.0282 25.0401 9.38913 24.7333 8.82277C24.409 8.2828 23.9405 7.84493 23.3808 7.55885L15.6998 3.1151C15.152 2.78395 14.527 2.60347 13.8876 2.5918C13.2418 2.62278 12.6117 2.80178 12.0455 3.1151L4.45195 7.52648C3.88484 7.85251 3.40085 8.30628 3.0381 8.85205C2.71335 9.40143 2.55344 10.0332 2.57756 10.6716V19.5869C2.55561 20.2111 2.70511 20.8294 3.0097 21.3741C3.34499 21.9508 3.83489 22.4213 4.42355 22.732L12.0754 27.1735C12.2432 27.2678 12.4173 27.3502 12.5966 27.4201V17.4891L7.68416 14.6499H7.67572Z" fill="currentColor"/>
</symbol><symbol id="logo-hr-payroll" viewBox="0 0 128 24"><path d="m.863636 19h2.113634v-7.8068h9.30683v7.8068h2.1136v-17.45455h-2.1136v7.77273h-9.30683v-7.77273h-2.113634zm17.765664 0h2.1136v-6.8182h3.8182c.1534 0 .2983 0 .4432-.0085l3.6818 6.8267h2.4545l-3.946-7.2102c2.2244-.7586 3.2642-2.57389 3.2642-4.89207 0-3.08523-1.8409-5.35228-5.9318-5.35228h-5.8977zm2.1136-8.7273v-6.85225h3.7159c2.8296 0 3.9205 1.38069 3.9205 3.47728s-1.0909 3.37497-3.8864 3.37497zm25.8857-9.545428h-1.841l-5.625 20.897728h1.841zm9.4069 18.272728h2.1136v-6.375h3.8182c4.0654 0 5.8978-2.4716 5.8978-5.55682 0-3.08523-1.8324-5.52273-5.9319-5.52273h-5.8977zm2.1136-8.25v-7.32955h3.716c2.838 0 3.9204 1.55114 3.9204 3.64773s-1.0824 3.68182-3.8864 3.68182zm16.7003 8.5568c2.2841 0 3.4773-1.2273 3.8864-2.0795h.1023v1.7727h2.0113v-8.625c0-4.15909-3.1704-4.63636-4.8409-4.63636-1.9773 0-4.2273.68181-5.25 3.06818l1.9091.68182c.4432-.95455 1.4915-1.97728 3.4091-1.97728 1.8494 0 2.7614.98012 2.7614 2.65914v.0681c0 .9716-.9887.8864-3.375 1.1932-2.429.3154-5.0796.8523-5.0796 3.8523 0 2.5568 1.9773 4.0227 4.4659 4.0227zm.3068-1.8068c-1.6022 0-2.7613-.7159-2.7613-2.1136 0-1.5341 1.3977-2.0114 2.9659-2.2159.8523-.1023 3.1364-.341 3.4773-.75v1.8409c0 1.6363-1.2955 3.2386-3.6819 3.2386zm10.1911 6.375c1.8153 0 3.1023-.9631 3.8523-2.9659l5.5738-14.96592-2.1988-.03409-3.6137 10.43181h-.1363l-3.6137-10.43181h-2.1818l4.8409 13.15911-.375 1.0227c-.7159 1.9602-1.6363 2.1477-3.1022 1.7727l-.5114 1.7728c.2045.1022.7841.2386 1.4659.2386zm12.0874-4.875h2.0113v-8.2841c0-1.77272 1.398-3.06817 3.307-3.06817.537 0 1.091.10227 1.227.13636v-2.04545c-.23-.01705-.758-.0341-1.057-.0341-1.568 0-2.9315.88637-3.4088 2.18182h-.1364v-1.97727h-1.9431zm13.8493.2727c3.546 0 5.932-2.6932 5.932-6.75 0-4.09088-2.386-6.78406-5.932-6.78406-3.545 0-5.932 2.69318-5.932 6.78406 0 4.0568 2.387 6.75 5.932 6.75zm0-1.8068c-2.693 0-3.92-2.3182-3.92-4.9432 0-2.62497 1.227-4.97725 3.92-4.97725s3.921 2.35228 3.921 4.97725c0 2.625-1.228 4.9432-3.921 4.9432zm11.014-15.92045h-2.012v17.45455h2.012zm5.695 0h-2.011v17.45455h2.011z" fill="#fff"/></symbol><symbol id="phone" viewBox="0 0 512 512"><path d="M487.8 24.1L387 .8c-14.7-3.4-29.8 4.2-35.8 18.1l-46.5 108.5c-5.5 12.7-1.8 27.7 8.9 36.5l53.9 44.1c-34 69.2-90.3 125.6-159.6 159.6l-44.1-53.9c-8.8-10.7-23.8-14.4-36.5-8.9L18.9 351.3C5 357.3-2.6 372.3.8 387L24 487.7C27.3 502 39.9 512 54.5 512 306.7 512 512 307.8 512 54.5c0-14.6-10-27.2-24.2-30.4zM55.1 480l-23-99.6 107.4-46 59.5 72.8c103.6-48.6 159.7-104.9 208.1-208.1l-72.8-59.5 46-107.4 99.6 23C479.7 289.7 289.6 479.7 55.1 480z"/></symbol><symbol id="plus" viewBox="0 0 16 16"><path d="M15.188 6.943h-6.25V.693a.336.336 0 00-.313-.312h-1.25a.308.308 0 00-.313.312v6.25H.813a.308.308 0 00-.312.313v1.25c0 .195.117.312.313.312h6.25v6.25c0 .196.117.313.312.313h1.25a.308.308 0 00.313-.313v-6.25h6.25a.308.308 0 00.312-.312v-1.25a.336.336 0 00-.313-.313z" fill="currentColor"/></symbol><symbol id="questys-graphic" viewBox="0 0 1439 972"><g fill="#fff" opacity=".05"><path d="m104.289 135.578c-15.9193 3.812-34.5183 3.753-48.9728 10.408 24.1563 12.925 54.4368 14.937 80.2558 25.481 80.515 25.552 153.183 73.4 208.597 137.034 1.947 3.404 15.851 15.962 11.789 4.695-47.675-78.634-116.867-145.121-201.487-182.654-15.377-5.146-33.878 4.613-50.182 5.036z"/><path d="m579.626 632.089c-27.357 10.792-58.022 17.907-83.534 31.076 25.626 70.726 62.973 138.322 111.877 195.831 42.763 48.175 96.569 87.935 156.458 111.78 19.14 2.695 35.722-14.057 53.696-18.622 38.115-17.114 76.821-33.218 114.154-51.906-10.887-13.031-31.747-18.29-45.286-29.828-86.929-61.259-157.882-143.546-208.23-237.061-9.3-10-11.721-39.167-30.421-25.088-22.905 7.939-45.81 15.879-68.714 23.818z"/><path d="m1124.26 636.384c-33.12 13.591-69.05 24.385-100.48 39.827 47.17 46.594 103.79 85.018 164.62 111.565 83.92-34.598 167.48-70.799 250.27-107.796-1.72-7.367-18.64-5.223-24.6-9.476-66.71-15.188-129.96-41.751-191.18-71.557-32.88 12.479-65.76 24.958-98.63 37.437z"/><path d="m561.945.0101076c-46.684.5401854-92.409 11.3690924-138.468 17.7971924-141.306 22.818-282.38 47.0192-423.4487924 71.2582-.6903666 4.8843 11.4775924 2.754 16.0864924 4.6185 46.1948 8.064 92.4123 19.149 135.2473 38.756 40.837 18.497 79.286 42.415 112.008 73.211 55.685 50.973 96.165 116.196 126.34 184.874 31.777 70.056 55.196 143.455 81.839 215.534 4 10.468 7.087 21.306 11.48 31.589 19.435-4.887 38.678-13.19 58.035-19.334 164.644-57.286 329.507-113.992 493.916-171.943 2.45-5.103-8.19-10.712-10.97-15.965-86.701-100.192-146.288-220.463-232.619-320.921-45.173-52.1533-105.736-93.762-174.8-105.09603-18.026-3.17021-36.351-4.520947-54.646-4.3788624z"/><path d="m901.661 519.408c-70.828 24.654-141.765 49.01-212.539 73.803-2.093 4.267 3.706 9.161 4.822 13.371 23.436 44.013 50.458 86.063 81.393 125.192 2.167 4.372 6.637 8.919 11.548 4.842 135.761-51.09 271.185-103.089 406.765-154.673-1.25-6.052-12.68-9.237-17.71-14.185-43.81-29.092-83.44-63.952-120.66-100.99-29.91 8.825-59.657 20.479-89.506 30.393-21.371 7.415-42.742 14.831-64.113 22.247z"/><path d="m992.473 686.13c-63.54 23.152-126.654 47.793-189.621 72.562-5.53 2.209 2.57 6.933 4.057 9.44 45.342 47.262 98.333 87.592 157.277 116.356 6.754 4.12 13.445-3.765 20.024-5.03 56.99-24.499 113.87-49.265 170.53-74.521-1.24-5.617-12.49-7.512-17.52-11.682-51.31-28.137-98.26-63.825-139.813-104.981-1.394-1.124-3.045-2.292-4.934-2.144z"/></g></symbol><symbol id="questys-logo" viewBox="0 0 193 60"><path d="M64.292 30.075v7.38c.236.055.796.165.927-.062v-2.14c1.078-.084 2.21.084 3.248-.283.947-.337 1.567-1.32 1.526-2.315.03-.95-.406-1.986-1.327-2.372-1.007-.378-2.117-.214-3.169-.261-.39.038-.854-.075-1.205.053zm2.15.759c.714.024 1.553-.075 2.085.514.58.555.583 1.523.243 2.204-.377.729-1.248.865-1.989.855-.52.02-1.041.028-1.562.043v-3.64l1.223.024zm7.168.85c-1.34-.078-2.593 1.024-2.768 2.336-.03.697-.114 1.456.308 2.063.607 1.088 1.93 1.675 3.145 1.42.712-.136 1.448-.46 1.897-1.042-.028-.243-.326-.385-.525-.482-.332.11-.538.476-.895.571-.96.386-2.184.118-2.74-.808-.151-.248-.33-.516-.315-.82h4.679c.122-.427.03-.95-.103-1.391-.31-.993-1.217-1.842-2.296-1.837a5.002 5.002 0 00-.387-.01zm.073.752c.699-.05 1.445.323 1.681 1.02.107.23.18.476.205.73-1.244-.031-2.495.058-3.735-.042-.278-.054.016-.39.03-.535.306-.687 1.033-1.251 1.819-1.173zm6.729-.774c-1.684-.045-3.266 1.543-3.034 3.25.14 1.404 1.402 2.504 2.778 2.626 1.641.207 3.385-1.098 3.42-2.801.114-1.51-1.163-2.866-2.63-3.043a3.203 3.203 0 00-.534-.032zm.085.838c1.293-.092 2.436 1.258 2.126 2.523-.19 1.03-1.23 1.786-2.27 1.67-.848.04-1.62-.586-1.942-1.34-.26-.764-.143-1.72.522-2.26.406-.429.982-.61 1.564-.593zm7.089-.838c-.66-.005-1.272.256-1.843.559-.02-.281.024-.63-.389-.496-.455-.116-.678.098-.558.558v7.002c.236.054.796.165.927-.063.025-.72-.054-1.528.056-2.2 1.178.72 2.855.752 3.898-.236 1.215-1.053 1.327-3.153.122-4.258-.55-.624-1.4-.886-2.213-.866zm-.1.824c1.193-.088 2.341 1.003 2.226 2.21.01 1.067-.996 2.076-2.088 1.99-.645.055-1.33-.115-1.81-.554-.188-.615-.03-1.285-.072-1.92.04-.368-.063-.813.064-1.136a2.739 2.739 0 011.68-.59zm4.439-2.916v7.886c.236.053.796.164.927-.063V29.57c-.234-.09-.692-.087-.927 0zm5.007 2.093c-1.206-.015-2.333.828-2.673 1.981-.458 1.333.117 2.985 1.424 3.598 1.207.602 2.775.287 3.735-.632.234-.304-.26-.581-.475-.656-.45.427-1.023.808-1.673.723-.53.049-1.089-.051-1.473-.431a2.23 2.23 0 01-.773-1.324h4.714c.13-.435.012-.964-.125-1.41-.296-.961-1.142-1.748-2.168-1.824a3.353 3.353 0 00-.513-.025zm.094.77c.787-.077 1.57.47 1.76 1.242.037.168.22.6-.11.51H95.06c.029-.616.445-1.191.956-1.519.303-.19.66-.233 1.01-.233zm14.653-2.4c-.398.07-.531.556-.773.824-.89 1.325-1.749 2.708-2.65 4.002-1.146-1.508-2.058-3.19-3.198-4.705-.132-.193-.626-.227-.515.11v7.192c.236.053.796.164.926-.063.018-1.712-.037-3.427.036-5.137.927 1.367 1.741 2.816 2.72 4.144.259-.141.369-.535.571-.767.724-1.118 1.435-2.245 2.151-3.368l.032 5.191c.259.059.835.159.989-.063v-7.326c-.062-.106-.195-.02-.289-.034zm4.567 1.62c-1.703-.008-3.223 1.658-2.949 3.361.251 1.775 2.279 2.956 3.962 2.413 1.455-.353 2.511-1.918 2.165-3.4-.297-1.441-1.737-2.431-3.178-2.374zm.121.825c1.207-.04 2.363 1.089 2.203 2.317-.065 1.17-1.256 2.045-2.389 1.895-1.033-.018-2.046-.974-1.972-2.05-.113-1.015.75-1.936 1.708-2.108a2.27 2.27 0 01.45-.054zm7.161-.808c-.766-.034-1.484.422-1.845 1.085-.038-.335.075-.733-.053-1.03-.27.086-.935-.216-.873.242v5.489c.235.053.796.164.926-.063.03-1.146-.062-2.3.059-3.442.162-.742.792-1.463 1.614-1.38.252-.049.572.135.788-.022.046-.24.142-.576-.035-.777-.174-.104-.385-.104-.581-.103zm4.139 0c-1.458-.012-2.743 1.286-2.756 2.739-.137 1.412.877 2.844 2.293 3.092 1.076.158 2.287-.123 3.037-.946.169-.295-.289-.455-.451-.609-.333.209-.639.55-1.054.653-.955.349-2.114-.024-2.63-.915-.147-.22-.213-.48-.289-.73l4.709-.033c.119-.417.034-.924-.093-1.355-.327-.99-1.213-1.87-2.304-1.88a4.457 4.457 0 00-.462-.015zm.146.76c.957-.098 1.844.745 1.842 1.691-.203.156-.739.017-1.065.064h-2.75c.076-.963.98-1.84 1.973-1.755zm7.517-2.366v7.392c.236.053.796.164.927-.063v-2.14c1.103-.087 2.27.09 3.325-.318.877-.35 1.482-1.293 1.374-2.24.039-.61-.007-1.27-.447-1.74-.5-.648-1.326-.951-2.131-.898-.998-.023-1.996-.03-2.994-.046l-.045.045-.009.008zm1.902.758c.784.042 1.71-.092 2.32.509.571.608.556 1.586.192 2.297-.427.731-1.356.787-2.108.787-.46.014-.92.024-1.379.036v-3.63h.975zm7.604.83c-.726.032-1.377.5-1.74 1.115-.048-.339.051-.742-.084-1.042-.269.086-.931-.215-.868.242v5.489c.235.053.796.164.926-.063.035-1.158-.079-2.335.103-3.481.172-.849 1.067-1.582 1.951-1.322.154.05.518.18.473-.117-.008-.243.204-.675-.169-.737a1.588 1.588 0 00-.592-.084zm4.514.001c-1.546.003-3.044 1.297-3.042 2.888-.07 1.73 1.641 3.203 3.336 2.995 1.535-.059 2.912-1.41 2.887-2.967.025-1.664-1.577-2.975-3.181-2.916zm.043.83c1.142-.047 2.27.925 2.211 2.11.054 1.181-1.079 2.194-2.242 2.11-1.074.038-2.114-.854-2.117-1.953-.104-.927.498-1.807 1.361-2.12.251-.096.519-.145.787-.148zm8.964-2.913c-.008.874.022 1.75-.031 2.623-1.284-.818-3.215-.729-4.203.51-.993 1.193-.875 3.177.375 4.15.648.55 1.527.824 2.37.653.535-.038 1.034-.256 1.489-.528-.1.422.087.65.527.531.549.174.383-.413.4-.747V29.57c-.235-.09-.692-.087-.927 0zm-1.808 2.926c.657-.028 1.289.204 1.808.602v2.988c-.514.41-1.149.65-1.81.608-1.181.117-2.262-.994-2.173-2.17.029-1.095 1.045-2.127 2.175-2.028zm4.206-.718c.035 1.367-.081 2.746.091 4.107.184.998 1.173 1.67 2.158 1.666.763.08 1.511-.24 2.154-.572.008.288-.048.67.381.53.456.116.679-.098.558-.558v-5.173c-.235-.054-.796-.164-.926.063v4.254a2.865 2.865 0 01-2.571.5c-.528-.272-.975-.816-.922-1.434-.054-1.127-.047-2.256-.07-3.384-.202-.093-.651-.082-.853 0zm9.524-.113c-1.586.016-3.069 1.425-2.975 3.046.045 1.464 1.322 2.696 2.758 2.828.924.13 1.857-.324 2.477-.993-.115-.184-.444-.774-.699-.453-.375.368-.851.65-1.388.583-1.249.14-2.404-1.062-2.234-2.304.119-1.301 1.619-2.235 2.838-1.772.383.098.653.434.951.626.14-.19.55-.384.475-.67-.581-.577-1.377-.931-2.203-.89zm3.88-2.095v2.155c-.279.09-.91-.2-.946.18-.064.4-.011.78.494.62.556-.173.466.298.452.694.026 1.1-.057 2.212.082 3.305.301.778 1.21 1.173 2.005 1 .254-.044.73.002.713-.378.132-.398-.097-.545-.473-.41-.49.054-1.156-.003-1.305-.574-.179-.86-.054-1.759-.095-2.633.093-.305-.206-1.001.189-1.004.558-.03 1.166.06 1.694-.044-.036-.266.19-.89-.296-.756h-1.588V29.57c-.234-.09-.691-.087-.926 0zm3.848 2.208v5.678c.236.053.796.164.927-.063v-5.615c-.234-.09-.692-.087-.927 0zm.456-2.072c-.414.034-.724.531-.451.892.226.41.985.229 1.023-.243.089-.311-.294-.625-.572-.649zm1.518 2.041c.511 1.218 1.153 2.414 1.722 3.62.372.709.674 1.483 1.091 2.15.485.074.598-.504.797-.813.791-1.625 1.612-3.245 2.344-4.894-.237-.18-.621-.012-.899-.054-.727 1.364-1.338 2.82-2.055 4.203-.71-1.389-1.37-2.802-2.052-4.204-.29-.054-.653-.04-.948-.008zm9.172-.087c-1.304-.02-2.532.961-2.768 2.25-.339 1.418.452 3.078 1.894 3.499 1.152.347 2.512.03 3.361-.826.182-.305-.289-.55-.495-.629-.45.427-1.023.808-1.673.723-.547.05-1.115-.059-1.514-.466a2.133 2.133 0 01-.733-1.289h4.715c.13-.435.012-.964-.125-1.41-.291-.945-1.113-1.721-2.117-1.816a3.38 3.38 0 00-.545-.035zm.075.773c.787-.077 1.57.47 1.76 1.242.037.168.221.6-.111.51h-3.616c.03-.616.446-1.191.957-1.519.303-.19.66-.233 1.01-.233zM182.545.027a8.9 8.9 0 00-4.998 1.456c-1.377.936-2.38 2.469-2.577 4.131-.018 1.072-.137 2.205.36 3.198.754 1.749 2.525 2.758 4.244 3.365 2.208.829 4.589 1.096 6.771 2 .941.387 1.975 1.077 2.092 2.168.145 1.08-.436 2.187-1.397 2.695-1.473.8-3.237.687-4.861.6-1.956-.098-3.846-.681-5.622-1.488-.186-.032-.516-.336-.597-.018-.454.909-.892 1.825-1.337 2.738.311.294.799.432 1.194.636 2.102.976 4.399 1.562 6.724 1.546 1.732-.001 3.509.054 5.168-.531 1.609-.492 3.078-1.52 3.951-2.975.98-1.804 1.142-4.147.112-5.966-1.056-1.77-3.072-2.623-4.958-3.204-2.151-.679-4.447-.954-6.471-1.987-.742-.401-1.483-1.128-1.377-2.042a2.154 2.154 0 01.498-1.648c.937-1.146 2.541-1.393 3.947-1.329 2.245.097 4.466.635 6.538 1.503.31-.334.465-.85.717-1.251l.928-1.757c-.271-.262-.725-.36-1.082-.527-1.857-.67-3.802-1.156-5.775-1.292-.731-.027-1.462-.021-2.192-.021zm-26.796.154c-.509.04-1.055-.065-1.547.08-.032.245.263.469.338.703 2.744 4.72 5.507 9.428 8.262 14.141l.001 7.651c.393.127.885.016 1.315.053h2.587c.127-.393.015-.884.053-1.315-.005-2.387.009-4.778-.007-7.164L158.599.207c-.933-.061-1.905-.01-2.85-.026zm15.212.026c-1.629 2.857-3.291 5.703-4.901 8.566.304.845.848 1.59 1.269 2.382.301.444.501.99.895 1.357.24-.142.326-.511.505-.739 2.255-3.821 4.512-7.641 6.73-11.483-.074-.186-.388-.045-.551-.097-1.313-.004-2.646-.044-3.947.014zm-37.747.028v3.28c.394.128.885.017 1.315.054h6.067v19.189c.393.127.885.015 1.315.053h2.65c.126-.393.015-.885.053-1.315V3.569h7.328c.127-.393.016-.885.053-1.315V.235c-.393-.127-.885-.016-1.315-.053h-17.412l-.045.045-.009.008zm-11.52-.233c-2.238-.018-4.621.593-6.224 2.237-1.131 1.048-1.767 2.567-1.757 4.105-.071 1.45.365 2.977 1.462 3.978 1.473 1.424 3.514 2.01 5.441 2.531 1.705.491 3.492.777 5.085 1.585.731.389 1.463 1.02 1.499 1.912.109.924-.216 1.924-1.018 2.457-1.406 1.009-3.233.926-4.88.854-2.237-.059-4.404-.757-6.403-1.733-.286.297-.398.79-.619 1.161l-.86 1.785c.311.291.799.43 1.191.638 1.727.799 3.575 1.344 5.477 1.485 1.416.096 2.843.068 4.259-.008 2.258-.251 4.612-1.192 5.91-3.15.653-.973 1.026-2.143.946-3.321.019-.766.038-1.558-.314-2.262-.616-1.614-2.121-2.672-3.667-3.303-2.512-1.078-5.308-1.282-7.799-2.41-.894-.425-1.794-1.243-1.701-2.32-.019-1.116.793-2.083 1.809-2.462 1.495-.612 3.186-.387 4.75-.18 1.462.265 2.919.648 4.297 1.216.39.234.425-.513.642-.724.369-.748.823-1.467 1.098-2.255-.259-.255-.694-.31-1.024-.472a20.335 20.335 0 00-7.6-1.344zM94.289.235v22.523c.393.127.885.015 1.315.053h15.646c.127-.393.016-.885.053-1.315v-2.019c-.393-.127-.885-.016-1.315-.053H98.181v-5.95h10.356c.127-.393.016-.885.053-1.315-.029-.64.059-1.328-.044-1.937-3.448-.02-6.911-.003-10.365-.009V3.569h12.375c.127-.393.016-.885.053-1.315V.235c-.393-.127-.885-.016-1.315-.053H94.342l-.044.045-.01.008zm-22.465 0c.033 4.873-.008 9.747.085 14.619.076 1.334.545 2.63 1.18 3.798 1.2 2.163 3.45 3.6 5.846 4.083 1.283.337 2.615.245 3.926.205 2.923-.121 5.837-1.652 7.33-4.215.883-1.471 1.3-3.192 1.271-4.903.061-4.529.018-9.058.031-13.587C91.1.108 90.61.22 90.178.182h-2.523c-.127.393-.016.885-.054 1.315-.022 4.06.049 8.12-.056 12.178-.035 1.566-.606 3.166-1.712 4.302-1.038 1.014-2.497 1.458-3.923 1.437-1.675.11-3.485-.369-4.638-1.64-1.075-1.203-1.513-2.863-1.489-4.449-.063-4.363-.041-8.727-.067-13.09C75.302.11 74.79.22 74.338.182h-2.46l-.045.045-.009.008zM57.81.013c-3.243.034-6.483 1.379-8.692 3.776-3.272 3.286-4.104 8.747-1.862 12.824 1.617 3.265 4.903 5.523 8.446 6.205 1.188.24 2.411.128 3.615.128 1.715-.176 3.39-.753 4.88-1.618.22-.126.432-.293.655-.398.887.713 1.74 1.466 2.622 2.185.263-.083.388-.446.601-.623.408-.501.832-.99 1.216-1.51-.177-.308-.566-.499-.82-.762-2.106-1.783-4.234-3.542-6.352-5.312-.363.236-.609.699-.928 1.02-.27.388-.7.708-.846 1.164.411.465 1.004.815 1.422 1.264-2.258 1.353-5.222 1.315-7.525.115-2.163-1.176-3.793-3.353-4.12-5.806-.278-2.037.216-4.185 1.47-5.836 1.323-1.774 3.427-2.962 5.63-3.142 1.302-.099 2.628.038 3.826.578 2.848 1.18 4.903 4.158 4.812 7.263.047 1.08-.31 2.107-.716 3.094.27.357.704.61 1.037.923.704.563 1.385 1.174 2.1 1.712 1.162-1.856 1.807-4.079 1.646-6.28-.067-2.351-1.002-4.646-2.457-6.478-1.254-1.506-2.831-2.752-4.65-3.503a12.398 12.398 0 00-5.01-.983zM4.776 20.544c-.741.178-1.607.175-2.28.485 1.124.602 2.534.695 3.736 1.186a21.592 21.592 0 019.712 6.38c.09.158.738.743.548.218-2.22-3.66-5.44-6.756-9.38-8.503-.716-.24-1.577.215-2.336.234zM27.139 43.66c-1.274.502-2.702.834-3.89 1.447 1.194 3.293 2.932 6.44 5.21 9.117 1.99 2.243 4.495 4.094 7.283 5.204.891.125 1.663-.654 2.5-.867 1.775-.797 3.577-1.547 5.315-2.417-.507-.606-1.478-.851-2.109-1.388-4.047-2.852-7.35-6.683-9.694-11.037-.433-.465-.546-1.823-1.416-1.168l-3.2 1.109zm25.355.2c-1.541.633-3.214 1.135-4.678 1.854a25.515 25.515 0 007.665 5.194 433.953 433.953 0 0011.651-5.018c-.08-.343-.867-.244-1.145-.442-3.106-.707-6.05-1.943-8.9-3.331l-4.593 1.743z" fill="currentColor"/><path d="M26.315 14.233c-2.173.025-4.302.529-6.446.828C13.29 16.124 6.722 17.251.155 18.38c-.033.227.534.128.748.215 2.151.375 4.303.891 6.297 1.804 1.901.861 3.691 1.975 5.215 3.409 2.592 2.373 4.477 5.41 5.882 8.607 1.479 3.261 2.57 6.678 3.81 10.034.186.487.33.992.534 1.47.905-.227 1.8-.613 2.702-.9 7.665-2.666 15.34-5.306 22.995-8.004.114-.238-.381-.5-.51-.744-4.037-4.664-6.811-10.264-10.83-14.94-2.104-2.429-4.923-4.366-8.139-4.893a14.078 14.078 0 00-2.544-.204zm15.816 24.181c-3.297 1.148-6.6 2.282-9.895 3.436-.097.199.173.426.225.622a38.74 38.74 0 003.789 5.829c.1.203.309.415.538.225 6.32-2.378 12.625-4.8 18.937-7.2-.058-.282-.59-.43-.824-.661-2.04-1.355-3.885-2.977-5.618-4.702-1.392.411-2.777.954-4.167 1.415l-2.985 1.036zm4.229 7.762c-2.96 1.078-5.897 2.225-8.829 3.378-.257.103.12.323.189.44 2.11 2.2 4.578 4.078 7.322 5.417.315.191.626-.176.932-.235a650.407 650.407 0 007.94-3.469c-.058-.261-.582-.35-.816-.544a29.303 29.303 0 01-6.51-4.887c-.064-.053-.141-.107-.229-.1z" fill="currentColor"/></symbol><symbol id="stroopwafel" viewBox="0 0 512 512"><path d="M256 0C114.62 0 0 114.62 0 256s114.62 256 256 256 256-114.62 256-256S397.38 0 256 0zm0 464c-114.69 0-208-93.31-208-208S141.31 48 256 48s208 93.31 208 208-93.31 208-208 208zm158.39-208l28.28-28.28c3.12-3.12 3.12-8.19 0-11.31l-11.31-11.31c-3.12-3.12-8.19-3.12-11.31 0l-28.28 28.28-45.26-45.25 22.63-22.63 16.97 16.97c3.12 3.12 8.19 3.12 11.31 0l11.31-11.31c3.12-3.12 3.12-8.19 0-11.31l-16.97-16.97 5.66-5.66c3.12-3.12 3.12-8.19 0-11.31l-11.31-11.31c-3.12-3.12-8.19-3.12-11.31 0l-5.66 5.66-16.97-16.97c-3.12-3.12-8.19-3.12-11.31 0l-11.31 11.31c-3.12 3.12-3.12 8.19 0 11.31l16.97 16.97-22.63 22.63-45.26-45.25 28.29-28.28c3.12-3.12 3.12-8.19 0-11.31L295.6 69.32c-3.12-3.12-8.19-3.12-11.31 0L256 97.61l-28.29-28.29c-3.12-3.12-8.19-3.12-11.31 0l-11.31 11.31c-3.12 3.12-3.12 8.19 0 11.31l28.29 28.28-45.25 45.25-22.63-22.63 16.97-16.97c3.12-3.12 3.12-8.19 0-11.31l-11.31-11.31c-3.12-3.12-8.19-3.12-11.31 0l-16.97 16.97-5.66-5.66c-3.12-3.12-8.19-3.12-11.31 0l-11.31 11.31c-3.12 3.12-3.12 8.19 0 11.31l5.66 5.66-16.97 16.97c-3.12 3.12-3.12 8.19 0 11.31l11.31 11.31c3.12 3.12 8.19 3.12 11.31 0l16.97-16.97 22.63 22.63-45.25 45.25-28.29-28.28c-3.12-3.12-8.19-3.12-11.31 0L69.32 216.4c-3.12 3.12-3.12 8.19 0 11.31L97.61 256l-28.29 28.29c-3.12 3.12-3.12 8.19 0 11.31l11.31 11.31c3.12 3.12 8.19 3.12 11.31 0l28.29-28.28 45.25 45.25-22.63 22.63-16.97-16.97c-3.12-3.12-8.19-3.12-11.31 0l-11.31 11.31c-3.12 3.12-3.12 8.19 0 11.31l16.97 16.97-5.66 5.66c-3.12 3.12-3.12 8.19 0 11.31l11.31 11.31c3.12 3.12 8.19 3.12 11.31 0l5.66-5.66 16.97 16.97c3.12 3.12 8.19 3.12 11.31 0l11.31-11.31c3.12-3.12 3.12-8.19 0-11.31l-16.97-16.97 22.63-22.63 45.26 45.26-28.29 28.29c-3.12 3.12-3.12 8.19 0 11.31l11.31 11.31c3.12 3.12 8.19 3.12 11.31 0L256 414.39l28.29 28.29c3.12 3.12 8.19 3.12 11.31 0l11.31-11.31c3.12-3.12 3.12-8.19 0-11.31l-28.29-28.29 45.26-45.26 22.63 22.63-16.97 16.97c-3.12 3.12-3.12 8.19 0 11.31l11.31 11.31c3.12 3.12 8.19 3.12 11.31 0l16.97-16.97 5.66 5.66c3.12 3.12 8.19 3.12 11.31 0l11.31-11.31c3.12-3.12 3.12-8.19 0-11.31l-5.66-5.66 16.97-16.97c3.12-3.12 3.12-8.19 0-11.31l-11.31-11.31c-3.12-3.12-8.19-3.12-11.31 0l-16.97 16.97-22.63-22.63 45.25-45.25 28.29 28.28c3.12 3.12 8.19 3.12 11.31 0l11.31-11.31c3.12-3.12 3.12-8.19 0-11.31L414.39 256zM256 142.86l45.25 45.25L256 233.37l-45.25-45.25L256 142.86zM142.86 256l45.25-45.26L233.37 256l-45.26 45.26L142.86 256zM256 369.14l-45.26-45.26L256 278.62l45.26 45.26L256 369.14zm67.88-67.89L278.63 256l45.26-45.25L369.14 256l-45.26 45.25z"/></symbol><symbol id="trash" viewBox="0 0 18 21"><path d="m17.4375 3.38098h-4.0625l-1.3281-1.71875c-.3125-.42969-.9766-.781249-1.4844-.781249h-3.125c-.54688 0-1.21094.351559-1.52344.781249l-1.28906 1.71875h-4.0625c-.195312 0-.3125.15625-.3125.3125v.625c0 .19531.117188.3125.3125.3125h.70312l1.32813 14.57032c.07813.9375.89844 1.6797 1.83594 1.6797h9.10151c.9376 0 1.7579-.7422 1.836-1.6797l1.3281-14.57032h.7422c.1563 0 .3125-.11719.3125-.3125v-.625c0-.15625-.1562-.3125-.3125-.3125zm-10.50781-.97656c.07812-.15625.3125-.23438.50781-.27344h3.125c.1563.03906.3906.11719.4687.27344l.7813.97656h-5.625zm7.22651 16.67968c-.039.3125-.3124.5469-.625.5469h-9.10151c-.3125 0-.58594-.2344-.58594-.5469l-1.28906-14.45312h12.89061z" fill="currentColor"/></symbol><symbol id="triangle-down" viewBox="0 0 300 217"><path d="M150 216.513L300 0H0z"/></symbol></svg>