<svg xmlns="http://www.w3.org/2000/svg" viewBox="0 0 384 512"><g fill="none" fill-rule="evenodd"><path d="M0 511.6l192-111.912L384 511.6V47.963C384 21.973 361.984 0 336 0H48C20.992 0 0 21.999 0 47.963V511.6z" fill="currentColor"/><path d="M333.809 132.039L153.329 311.07c-4.705 4.667-12.303 4.637-16.97-.068L50.48 224.43c-4.667-4.705-4.637-12.303.068-16.97l8.52-8.451c4.705-4.667 12.303-4.637 16.97.068l68.976 69.533 163.44-162.13c4.706-4.667 12.304-4.637 16.97.068l8.452 8.52c4.668 4.705 4.637 12.303-.068 16.97z" fill="#FFF"/></g></svg>
