<svg fill="none" xmlns="http://www.w3.org/2000/svg" viewBox="0 0 20 20"><path d="M0 1a1 1 0 011-1h18a1 1 0 011 1v18a1 1 0 01-1 1H1a1 1 0 01-1-1V1z" fill="currentColor"/><path d="M1 1.5h18v-3H1v3zM18.5 1v18h3V1h-3zm.5 17.5H1v3h18v-3zM1.5 19V1h-3v18h3zm-.5-.5a.5.5 0 01.5.5h-3A2.5 2.5 0 001 21.5v-3zm17.5.5a.5.5 0 01.5-.5v3a2.5 2.5 0 002.5-2.5h-3zM19 1.5a.5.5 0 01-.5-.5h3A2.5 2.5 0 0019-1.5v3zm-18-3A2.5 2.5 0 00-1.5 1h3a.5.5 0 01-.5.5v-3z" fill="currentColor"/><path d="M16.594 4.625l-8.219 8.219-3-3.031c-.156-.126-.406-.126-.531 0l-.907.906c-.124.125-.124.375 0 .531l4.188 4.156a.36.36 0 00.531 0l9.375-9.375c.125-.125.125-.375 0-.531l-.906-.875c-.125-.156-.375-.156-.531 0z" fill="#fff"/></svg>
