<svg fill="none" xmlns="http://www.w3.org/2000/svg" viewBox="0 0 769 458"><g opacity="0.2"><path opacity=".217" d="M486.279 115.907h-12.254a8.168 8.168 0 003.403-.57 8.548 8.548 0 002.917-1.942 9.128 9.128 0 001.962-3.001 9.562 9.562 0 00.691-3.576 9.566 9.566 0 00-.691-3.576 9.138 9.138 0 00-1.962-3.001 8.54 8.54 0 00-2.917-1.941 8.15 8.15 0 00-3.403-.57h-99.263c-2.208.105-4.292 1.109-5.819 2.802-1.527 1.693-2.379 3.944-2.379 6.286 0 2.342.852 4.594 2.379 6.286 1.527 1.693 3.611 2.697 5.819 2.803h12.254a8.136 8.136 0 00-3.403.57 8.534 8.534 0 00-2.917 1.942 9.134 9.134 0 00-1.962 3 9.57 9.57 0 00-.691 3.576c0 1.23.235 2.446.691 3.577a9.134 9.134 0 001.962 3 8.534 8.534 0 002.917 1.942 8.136 8.136 0 003.403.57h-17.153a8.164 8.164 0 00-3.402.57 8.539 8.539 0 00-2.917 1.942 9.118 9.118 0 00-1.962 3 9.571 9.571 0 00-.691 3.577c0 1.229.235 2.446.691 3.576a9.123 9.123 0 001.962 3.001 8.521 8.521 0 002.917 1.941 8.132 8.132 0 003.402.57h99.264a8.132 8.132 0 003.402-.57 8.512 8.512 0 002.917-1.941 9.125 9.125 0 001.963-3.001 9.566 9.566 0 00.691-3.576c0-1.23-.235-2.446-.691-3.577a9.121 9.121 0 00-1.963-3 8.529 8.529 0 00-2.917-1.942 8.164 8.164 0 00-3.402-.57h17.152a8.136 8.136 0 003.403-.57 8.534 8.534 0 002.917-1.942 9.118 9.118 0 001.962-3 9.571 9.571 0 00.691-3.577 9.57 9.57 0 00-.691-3.576 9.118 9.118 0 00-1.962-3 8.534 8.534 0 00-2.917-1.942 8.136 8.136 0 00-3.403-.57z" fill="#fff"/><path opacity=".639" d="M769 393.562c-7.55 2.458-15.461 4.581-23.267 6.697-28.833 7.689-58.102 15.444-89.078 18.083-58.176 4.889-118.209-8.506-175.367-.147-47.88 6.979-87.477 24.12-134.254 33.643-21.749 4.427-44.38 6.162-67.211 6.162h-2.949a517.851 517.851 0 01-8.42-.134c-23.149-.549-61.835-3.262-84.529-6.027C112.27 443.133 54.785 431.966 0 402.584c159.514-18.406 488.094-46.655 769-9.022z" fill="#1C2640"/><path opacity=".657" d="M740.269 167.808v-43.131h-24.168v43.131h-28.617v-66.72h-20.986v-49.87h-17.17V0h-35.612v51.219h-17.17v49.869h-20.349V41.11h-11.446V10.782h-6.996v30.326h-40.699v191.397h-31.161v-20.218h-19.078v20.218h-31.161v-64.698h-55.961v-43.131h-24.166v43.131h-1.272v82.893H328.82v-48.525h-30.525v48.525h-25.437V101.088h-19.714v-49.87l-21.423-40.435h-28.308l-22.766 40.436v49.869h-19.078v263.507h607.316V167.809l-28.616-.001z" fill="#1C2640"/><path opacity=".4" d="M200.362 116.589h-26.71v16.175h26.71v-16.175zM233.429 132.764h26.71V116.59h-26.71v16.174zM200.362 148.264h-26.71v16.174h26.71v-16.174zM233.429 164.438h26.71v-16.174h-26.71v16.174zM200.362 179.939h-26.71v16.174h26.71v-16.174zM233.429 196.113h26.71v-16.174h-26.71v16.174zM200.362 211.614h-26.71v16.174h26.71v-16.174zM233.429 227.788h26.71v-16.174h-26.71v16.174zM200.362 243.288h-26.71v16.174h26.71v-16.174zM233.429 259.462h26.71v-16.174h-26.71v16.174zM200.362 274.963h-26.71v16.174h26.71v-16.174zM233.429 291.137h26.71v-16.174h-26.71v16.174zM200.362 306.637h-26.71v16.175h26.71v-16.175zM233.429 322.812h26.709v-16.175h-26.709v16.175zM344.718 266.876h-62.321v8.087h62.321v-8.087zM344.718 279.007h-62.321v8.087h62.321v-8.087zM344.718 291.137h-62.321v8.087h62.321v-8.087zM507.517 270.919h-62.321v8.087h62.321v-8.087zM507.517 283.05h-62.321v8.087h62.321v-8.087zM507.517 295.181h-62.321v8.087h62.321v-8.087zM344.718 303.268h-62.321v8.087h62.321v-8.087zM344.718 315.398h-62.321v8.087h62.321v-8.087zM344.718 327.529h-62.321v8.087h62.321v-8.087zM384.782 183.309h-17.17v23.587h17.17v-23.587zM405.132 206.896h17.17v-23.587h-17.17v23.587zM384.782 221.048h-17.17v23.588h17.17v-23.588zM405.132 244.636h17.17v-23.587h-17.17v23.587zM384.782 258.788h-17.17v23.588h17.17v-23.588zM405.132 282.376h17.17v-23.588h-17.17v23.588zM384.782 296.529h-17.17v23.587h17.17v-23.587zM405.132 320.116h17.17v-23.587h-17.17v23.587zM558.202 56.61h-22.894v31h22.894v-31zM558.202 101.089h-22.894v31.001h22.894v-31.001zM558.202 145.568h-22.894v31.001h22.894v-31.001zM558.202 190.048h-22.894v31h22.894v-31zM558.202 234.527h-22.894v31.001h22.894v-31.001zM558.202 279.007h-22.894v31h22.894v-31zM674.449 119.959h-85.215v26.284h85.215v-26.284zM674.768 176.569h-85.216v26.283h85.216v-26.283zM675.086 233.179h-85.215v26.284h85.215v-26.284zM675.403 289.789h-85.215v26.284h85.215v-26.284zM203.768 65.371h-11.447v25.61h11.447V65.37zM626.098 64.046h-11.447v25.609h11.447v-25.61zM651.112 64.046h-11.447v25.609h11.447v-25.61zM636.937 15.004H625.49v25.609h11.447v-25.61zM224.613 65.371h-11.446v25.61h11.446V65.37zM245.458 65.371h-11.446v25.61h11.446V65.37zM768.886 183.309h-28.617v39.087h28.617v-39.087zM768.886 239.918h-28.617v39.088h28.617v-39.088zM768.886 296.529h-28.617v39.087h28.617v-39.087z" fill="#fff"/><path d="M727.41 391.721s-15.688-56.448 2.945-97.996c7.822-17.434 10.416-37.012 6.804-55.934a156.646 156.646 0 00-7.472-26.283" stroke="#535461" stroke-width="2" stroke-miterlimit="10"/><path d="M741.28 185.283c0 6.921-11.822 26.957-11.822 26.957s-11.822-20.063-11.822-26.957a13.19 13.19 0 01.829-4.873 12.616 12.616 0 012.546-4.152 11.79 11.79 0 013.864-2.782 11.245 11.245 0 014.58-.979c1.573 0 3.13.333 4.581.979a11.79 11.79 0 013.864 2.782 12.616 12.616 0 012.546 4.152c.579 1.55.861 3.206.829 4.873h.005zM760.815 223.603c-3.548 5.809-23.758 15.837-23.758 15.837s.369-23.648 3.919-29.457a12.272 12.272 0 013.191-3.635 11.506 11.506 0 014.272-2.036 11.17 11.17 0 014.683-.118c1.553.292 3.035.911 4.358 1.819a12.169 12.169 0 013.35 3.47 12.944 12.944 0 011.815 4.576c.311 1.639.31 3.327-.004 4.965a12.934 12.934 0 01-1.824 4.572l-.002.007zM759.963 289.09c-5.831 3.114-28.05.964-28.05.964s11.58-20.218 17.411-23.332a11.308 11.308 0 014.445-1.307 11.177 11.177 0 014.577.594 11.652 11.652 0 014.015 2.406 12.434 12.434 0 012.841 3.851 13.12 13.12 0 011.234 4.709 13.236 13.236 0 01-.561 4.852 12.757 12.757 0 01-2.27 4.255 11.957 11.957 0 01-3.634 3.01l-.008-.002zM748.79 338.48c-5.246 4.109-27.497 5.971-27.497 5.971s8.191-21.997 13.437-26.115a11.554 11.554 0 014.177-2.111c1.51-.405 3.081-.49 4.622-.25s3.022.8 4.358 1.649a12.086 12.086 0 013.427 3.295 12.887 12.887 0 011.971 4.437c.374 1.603.446 3.268.212 4.9a13.026 13.026 0 01-1.579 4.61 12.286 12.286 0 01-3.127 3.614h-.001zM712.236 240.761c4.681 4.818 26.5 9.812 26.5 9.812s-5.342-22.961-10.023-27.786a11.78 11.78 0 00-3.872-2.657 11.241 11.241 0 00-4.537-.884 11.258 11.258 0 00-4.511 1.023 11.82 11.82 0 00-3.798 2.774 12.624 12.624 0 00-2.507 4.104 13.19 13.19 0 00-.835 4.808c.023 1.645.351 3.27.965 4.781a12.592 12.592 0 002.618 4.025zM699.887 298.719c5.831 3.113 28.051.963 28.051.963s-11.58-20.217-17.412-23.331a11.214 11.214 0 00-8.897-.522c-2.916 1.063-5.325 3.291-6.713 6.209a13.214 13.214 0 00-.717 9.412c.929 3.116 2.97 5.725 5.688 7.269zM695.124 356.784c5.246 4.109 27.497 5.972 27.497 5.972s-8.191-21.998-13.437-26.115a11.539 11.539 0 00-4.177-2.111 11.164 11.164 0 00-4.622-.251c-1.541.24-3.022.801-4.358 1.649a12.104 12.104 0 00-3.427 3.296 12.887 12.887 0 00-1.971 4.437 13.281 13.281 0 00-.212 4.899 13.012 13.012 0 001.579 4.61 12.278 12.278 0 003.127 3.615l.001-.001z" fill="#fff" fill-opacity=".7"/><path d="M656.643 386.229s-8.432-30.327 1.584-52.661c4.256-9.336 5.539-19.883 3.657-30.058a84.282 84.282 0 00-4.013-14.105" stroke="#535461" stroke-width="2" stroke-miterlimit="10"/><path d="M664.096 275.286c0 3.72-6.359 14.496-6.359 14.496s-6.36-10.783-6.36-14.496c0-1.787.67-3.502 1.863-4.765 1.193-1.264 2.81-1.974 4.497-1.974 1.686 0 3.304.71 4.497 1.974 1.192 1.263 1.862 2.978 1.862 4.765zM674.596 295.883c-1.908 3.121-12.77 8.512-12.77 8.512s.197-12.71 2.105-15.831a6.615 6.615 0 011.705-2.011 6.185 6.185 0 012.313-1.14 6.011 6.011 0 012.55-.085c.847.155 1.655.49 2.376.985a6.53 6.53 0 011.82 1.895c.48.755.81 1.606.971 2.5a7.17 7.17 0 01-.035 2.704 6.945 6.945 0 01-1.035 2.471zM674.138 331.067c-3.135 1.672-15.078.52-15.078.52s6.226-10.864 9.354-12.535a6.027 6.027 0 014.739-.215c1.546.578 2.822 1.767 3.56 3.319a7.105 7.105 0 01.404 5.008c-.48 1.662-1.548 3.063-2.979 3.91v-.007zM668.128 357.614c-2.824 2.209-14.779 3.208-14.779 3.208s4.401-11.821 7.224-14.032a6.075 6.075 0 014.628-1.042c1.611.297 3.053 1.239 4.026 2.633a7.042 7.042 0 011.196 4.85c-.204 1.72-1.026 3.29-2.295 4.384v-.001zM648.49 305.115c2.544 2.587 14.239 5.276 14.239 5.276s-2.868-12.339-5.387-14.928a6.374 6.374 0 00-2.085-1.565 6.064 6.064 0 00-2.499-.57 6.066 6.066 0 00-2.509.52 6.337 6.337 0 00-2.112 1.524 6.813 6.813 0 00-1.377 2.282 7.11 7.11 0 00.193 5.303 6.73 6.73 0 001.537 2.164v-.006zM641.839 336.25c3.135 1.671 15.078.519 15.078.519s-6.226-10.864-9.355-12.535a6.033 6.033 0 00-4.738-.215c-1.546.579-2.822 1.768-3.561 3.32a7.101 7.101 0 00-.403 5.007c.48 1.662 1.547 3.063 2.979 3.911v-.007zM639.295 367.46c2.824 2.209 14.779 3.208 14.779 3.208s-4.426-11.828-7.224-14.038a6.074 6.074 0 00-4.64-1.066c-1.619.292-3.068 1.237-4.044 2.637a7.04 7.04 0 00-1.193 4.87c.21 1.726 1.043 3.298 2.322 4.389z" fill="#fff" fill-opacity=".7"/><path opacity=".217" d="M329.888 32.133h-4.375c.414.02.827-.05 1.215-.204.388-.154.742-.39 1.041-.693.3-.303.538-.667.701-1.071a3.413 3.413 0 000-2.554 3.253 3.253 0 00-.701-1.071 3.04 3.04 0 00-1.041-.693 2.91 2.91 0 00-1.215-.204h-35.441a2.991 2.991 0 00-2.077 1 3.354 3.354 0 00-.849 2.245c0 .836.304 1.64.849 2.244a2.992 2.992 0 002.077 1.001h4.375c-.413-.02-.827.05-1.214.204-.388.154-.742.39-1.042.693a3.25 3.25 0 00-.7 1.071 3.413 3.413 0 000 2.554c.162.403.401.768.7 1.071.3.303.654.54 1.042.693.387.155.801.224 1.214.204h-6.124c-.413-.02-.827.05-1.214.204-.388.154-.742.39-1.042.693a3.251 3.251 0 00-.7 1.071 3.413 3.413 0 000 2.554c.162.403.401.768.7 1.071.3.303.654.54 1.042.693.387.154.801.224 1.214.204h35.441c.414.02.827-.05 1.215-.204a3.04 3.04 0 001.041-.693c.3-.303.538-.668.701-1.071a3.412 3.412 0 000-2.554 3.254 3.254 0 00-.701-1.071 3.039 3.039 0 00-1.041-.694 2.91 2.91 0 00-1.215-.203h6.124c.414.02.827-.05 1.215-.204a3.04 3.04 0 001.041-.693c.3-.303.538-.668.701-1.071a3.413 3.413 0 000-2.554 3.254 3.254 0 00-.701-1.071 3.04 3.04 0 00-1.041-.693 2.909 2.909 0 00-1.215-.204zM752.784 7.198h-4.375c.414.02.827-.05 1.215-.204.387-.154.742-.39 1.041-.693.3-.303.538-.668.701-1.071a3.431 3.431 0 000-2.554 3.254 3.254 0 00-.701-1.071 3.048 3.048 0 00-1.041-.694 2.91 2.91 0 00-1.215-.203h-35.441a2.992 2.992 0 00-2.077 1 3.355 3.355 0 00-.85 2.245c0 .836.305 1.64.85 2.244a2.992 2.992 0 002.077 1h4.375a2.91 2.91 0 00-1.215.204c-.387.154-.742.39-1.041.693-.3.304-.538.668-.701 1.072a3.431 3.431 0 000 2.553c.163.404.401.769.701 1.072.299.303.654.539 1.041.693a2.91 2.91 0 001.215.204h-6.124c-.414-.02-.827.049-1.215.203a3.05 3.05 0 00-1.041.693c-.3.304-.538.668-.701 1.072a3.432 3.432 0 000 2.553c.163.404.401.768.701 1.072.299.303.654.539 1.041.693.388.154.801.223 1.215.203h35.441a2.991 2.991 0 002.077-1c.545-.604.85-1.408.85-2.244 0-.837-.305-1.64-.85-2.245a2.991 2.991 0 00-2.077-1h6.124c.414.02.827-.05 1.215-.204.387-.154.742-.39 1.041-.693.3-.303.538-.668.701-1.072a3.432 3.432 0 000-2.553 3.254 3.254 0 00-.701-1.072 3.048 3.048 0 00-1.041-.693 2.91 2.91 0 00-1.215-.203z" fill="#fff"/></g></svg>
