<svg fill="none" xmlns="http://www.w3.org/2000/svg" viewBox="0 0 20 20"><path d="M18.828 11.79l-1.25-.742c0-.274.04-.703.04-.977 0-.234-.04-.664-.04-.937l1.25-.742c.39-.196.547-.664.43-1.055a9.723 9.723 0 00-2.227-3.906.947.947 0 00-1.172-.156l-1.25.742a7.25 7.25 0 00-1.68-.977V1.595c0-.469-.273-.82-.702-.938a9.699 9.699 0 00-4.493 0c-.43.118-.703.47-.703.938V3.04a7.25 7.25 0 00-1.68.977l-1.25-.742a.947.947 0 00-1.171.156A9.724 9.724 0 00.703 7.337c-.117.39.04.86.43 1.055l1.25.742c0 .273-.04.703-.04.937 0 .274.04.704.04.977l-1.25.742c-.39.196-.547.664-.43 1.055A9.724 9.724 0 002.93 16.75a.947.947 0 001.172.156l1.25-.742c.43.352 1.171.781 1.68.977v1.445c0 .469.273.82.702.938a9.698 9.698 0 004.493 0c.43-.118.703-.47.703-.938v-1.445a7.252 7.252 0 001.68-.977l1.25.742c.39.235.859.157 1.171-.156a9.724 9.724 0 002.227-3.906c.117-.39-.04-.86-.43-1.055zm-2.539 3.906l-1.836-1.054c-1.055.937-1.406 1.133-2.773 1.64v2.07a8.216 8.216 0 01-1.68.196c-.508 0-1.25-.078-1.719-.195v-2.07c-1.328-.47-1.719-.704-2.773-1.641l-1.836 1.054a9.382 9.382 0 01-1.719-2.968l1.836-1.016c-.273-1.406-.273-1.836 0-3.242L1.953 7.454a9.381 9.381 0 011.719-2.969L5.508 5.54C6.562 4.603 6.953 4.368 8.28 3.9V1.83c.469-.118 1.211-.196 1.719-.196.469 0 1.21.078 1.68.195V3.9c1.328.47 1.718.704 2.773 1.641l1.836-1.055a9.382 9.382 0 011.719 2.97L16.172 8.47c.273 1.406.273 1.836 0 3.242l1.836 1.016a9.382 9.382 0 01-1.719 2.968zM10 6.321c-2.07 0-3.75 1.72-3.75 3.75 0 2.07 1.68 3.75 3.75 3.75 2.031 0 3.75-1.68 3.75-3.75 0-2.03-1.719-3.75-3.75-3.75zm0 6.25a2.468 2.468 0 01-2.5-2.5c0-1.367 1.094-2.5 2.5-2.5 1.367 0 2.5 1.133 2.5 2.5 0 1.407-1.133 2.5-2.5 2.5z" fill="currentColor"/></svg>
