<svg fill="none" height="24" viewBox="0 0 128 24" width="128" xmlns="http://www.w3.org/2000/svg"><path d="m.863636 19h2.113634v-7.8068h9.30683v7.8068h2.1136v-17.45455h-2.1136v7.77273h-9.30683v-7.77273h-2.113634zm17.765664 0h2.1136v-6.8182h3.8182c.1534 0 .2983 0 .4432-.0085l3.6818 6.8267h2.4545l-3.946-7.2102c2.2244-.7586 3.2642-2.57389 3.2642-4.89207 0-3.08523-1.8409-5.35228-5.9318-5.35228h-5.8977zm2.1136-8.7273v-6.85225h3.7159c2.8296 0 3.9205 1.38069 3.9205 3.47728s-1.0909 3.37497-3.8864 3.37497zm25.8857-9.545428h-1.841l-5.625 20.897728h1.841zm9.4069 18.272728h2.1136v-6.375h3.8182c4.0654 0 5.8978-2.4716 5.8978-5.55682 0-3.08523-1.8324-5.52273-5.9319-5.52273h-5.8977zm2.1136-8.25v-7.32955h3.716c2.838 0 3.9204 1.55114 3.9204 3.64773s-1.0824 3.68182-3.8864 3.68182zm16.7003 8.5568c2.2841 0 3.4773-1.2273 3.8864-2.0795h.1023v1.7727h2.0113v-8.625c0-4.15909-3.1704-4.63636-4.8409-4.63636-1.9773 0-4.2273.68181-5.25 3.06818l1.9091.68182c.4432-.95455 1.4915-1.97728 3.4091-1.97728 1.8494 0 2.7614.98012 2.7614 2.65914v.0681c0 .9716-.9887.8864-3.375 1.1932-2.429.3154-5.0796.8523-5.0796 3.8523 0 2.5568 1.9773 4.0227 4.4659 4.0227zm.3068-1.8068c-1.6022 0-2.7613-.7159-2.7613-2.1136 0-1.5341 1.3977-2.0114 2.9659-2.2159.8523-.1023 3.1364-.341 3.4773-.75v1.8409c0 1.6363-1.2955 3.2386-3.6819 3.2386zm10.1911 6.375c1.8153 0 3.1023-.9631 3.8523-2.9659l5.5738-14.96592-2.1988-.03409-3.6137 10.43181h-.1363l-3.6137-10.43181h-2.1818l4.8409 13.15911-.375 1.0227c-.7159 1.9602-1.6363 2.1477-3.1022 1.7727l-.5114 1.7728c.2045.1022.7841.2386 1.4659.2386zm12.0874-4.875h2.0113v-8.2841c0-1.77272 1.398-3.06817 3.307-3.06817.537 0 1.091.10227 1.227.13636v-2.04545c-.23-.01705-.758-.0341-1.057-.0341-1.568 0-2.9315.88637-3.4088 2.18182h-.1364v-1.97727h-1.9431zm13.8493.2727c3.546 0 5.932-2.6932 5.932-6.75 0-4.09088-2.386-6.78406-5.932-6.78406-3.545 0-5.932 2.69318-5.932 6.78406 0 4.0568 2.387 6.75 5.932 6.75zm0-1.8068c-2.693 0-3.92-2.3182-3.92-4.9432 0-2.62497 1.227-4.97725 3.92-4.97725s3.921 2.35228 3.921 4.97725c0 2.625-1.228 4.9432-3.921 4.9432zm11.014-15.92045h-2.012v17.45455h2.012zm5.695 0h-2.011v17.45455h2.011z" fill="#fff"/></svg>