<svg fill="none" xmlns="http://www.w3.org/2000/svg" viewBox="0 0 193 60"><path d="M64.292 30.075v7.38c.236.055.796.165.927-.062v-2.14c1.078-.084 2.21.084 3.248-.283.947-.337 1.567-1.32 1.526-2.315.03-.95-.406-1.986-1.327-2.372-1.007-.378-2.117-.214-3.169-.261-.39.038-.854-.075-1.205.053zm2.15.759c.714.024 1.553-.075 2.085.514.58.555.583 1.523.243 2.204-.377.729-1.248.865-1.989.855-.52.02-1.041.028-1.562.043v-3.64l1.223.024zm7.168.85c-1.34-.078-2.593 1.024-2.768 2.336-.03.697-.114 1.456.308 2.063.607 1.088 1.93 1.675 3.145 1.42.712-.136 1.448-.46 1.897-1.042-.028-.243-.326-.385-.525-.482-.332.11-.538.476-.895.571-.96.386-2.184.118-2.74-.808-.151-.248-.33-.516-.315-.82h4.679c.122-.427.03-.95-.103-1.391-.31-.993-1.217-1.842-2.296-1.837a5.002 5.002 0 00-.387-.01zm.073.752c.699-.05 1.445.323 1.681 1.02.107.23.18.476.205.73-1.244-.031-2.495.058-3.735-.042-.278-.054.016-.39.03-.535.306-.687 1.033-1.251 1.819-1.173zm6.729-.774c-1.684-.045-3.266 1.543-3.034 3.25.14 1.404 1.402 2.504 2.778 2.626 1.641.207 3.385-1.098 3.42-2.801.114-1.51-1.163-2.866-2.63-3.043a3.203 3.203 0 00-.534-.032zm.085.838c1.293-.092 2.436 1.258 2.126 2.523-.19 1.03-1.23 1.786-2.27 1.67-.848.04-1.62-.586-1.942-1.34-.26-.764-.143-1.72.522-2.26.406-.429.982-.61 1.564-.593zm7.089-.838c-.66-.005-1.272.256-1.843.559-.02-.281.024-.63-.389-.496-.455-.116-.678.098-.558.558v7.002c.236.054.796.165.927-.063.025-.72-.054-1.528.056-2.2 1.178.72 2.855.752 3.898-.236 1.215-1.053 1.327-3.153.122-4.258-.55-.624-1.4-.886-2.213-.866zm-.1.824c1.193-.088 2.341 1.003 2.226 2.21.01 1.067-.996 2.076-2.088 1.99-.645.055-1.33-.115-1.81-.554-.188-.615-.03-1.285-.072-1.92.04-.368-.063-.813.064-1.136a2.739 2.739 0 011.68-.59zm4.439-2.916v7.886c.236.053.796.164.927-.063V29.57c-.234-.09-.692-.087-.927 0zm5.007 2.093c-1.206-.015-2.333.828-2.673 1.981-.458 1.333.117 2.985 1.424 3.598 1.207.602 2.775.287 3.735-.632.234-.304-.26-.581-.475-.656-.45.427-1.023.808-1.673.723-.53.049-1.089-.051-1.473-.431a2.23 2.23 0 01-.773-1.324h4.714c.13-.435.012-.964-.125-1.41-.296-.961-1.142-1.748-2.168-1.824a3.353 3.353 0 00-.513-.025zm.094.77c.787-.077 1.57.47 1.76 1.242.037.168.22.6-.11.51H95.06c.029-.616.445-1.191.956-1.519.303-.19.66-.233 1.01-.233zm14.653-2.4c-.398.07-.531.556-.773.824-.89 1.325-1.749 2.708-2.65 4.002-1.146-1.508-2.058-3.19-3.198-4.705-.132-.193-.626-.227-.515.11v7.192c.236.053.796.164.926-.063.018-1.712-.037-3.427.036-5.137.927 1.367 1.741 2.816 2.72 4.144.259-.141.369-.535.571-.767.724-1.118 1.435-2.245 2.151-3.368l.032 5.191c.259.059.835.159.989-.063v-7.326c-.062-.106-.195-.02-.289-.034zm4.567 1.62c-1.703-.008-3.223 1.658-2.949 3.361.251 1.775 2.279 2.956 3.962 2.413 1.455-.353 2.511-1.918 2.165-3.4-.297-1.441-1.737-2.431-3.178-2.374zm.121.825c1.207-.04 2.363 1.089 2.203 2.317-.065 1.17-1.256 2.045-2.389 1.895-1.033-.018-2.046-.974-1.972-2.05-.113-1.015.75-1.936 1.708-2.108a2.27 2.27 0 01.45-.054zm7.161-.808c-.766-.034-1.484.422-1.845 1.085-.038-.335.075-.733-.053-1.03-.27.086-.935-.216-.873.242v5.489c.235.053.796.164.926-.063.03-1.146-.062-2.3.059-3.442.162-.742.792-1.463 1.614-1.38.252-.049.572.135.788-.022.046-.24.142-.576-.035-.777-.174-.104-.385-.104-.581-.103zm4.139 0c-1.458-.012-2.743 1.286-2.756 2.739-.137 1.412.877 2.844 2.293 3.092 1.076.158 2.287-.123 3.037-.946.169-.295-.289-.455-.451-.609-.333.209-.639.55-1.054.653-.955.349-2.114-.024-2.63-.915-.147-.22-.213-.48-.289-.73l4.709-.033c.119-.417.034-.924-.093-1.355-.327-.99-1.213-1.87-2.304-1.88a4.457 4.457 0 00-.462-.015zm.146.76c.957-.098 1.844.745 1.842 1.691-.203.156-.739.017-1.065.064h-2.75c.076-.963.98-1.84 1.973-1.755zm7.517-2.366v7.392c.236.053.796.164.927-.063v-2.14c1.103-.087 2.27.09 3.325-.318.877-.35 1.482-1.293 1.374-2.24.039-.61-.007-1.27-.447-1.74-.5-.648-1.326-.951-2.131-.898-.998-.023-1.996-.03-2.994-.046l-.045.045-.009.008zm1.902.758c.784.042 1.71-.092 2.32.509.571.608.556 1.586.192 2.297-.427.731-1.356.787-2.108.787-.46.014-.92.024-1.379.036v-3.63h.975zm7.604.83c-.726.032-1.377.5-1.74 1.115-.048-.339.051-.742-.084-1.042-.269.086-.931-.215-.868.242v5.489c.235.053.796.164.926-.063.035-1.158-.079-2.335.103-3.481.172-.849 1.067-1.582 1.951-1.322.154.05.518.18.473-.117-.008-.243.204-.675-.169-.737a1.588 1.588 0 00-.592-.084zm4.514.001c-1.546.003-3.044 1.297-3.042 2.888-.07 1.73 1.641 3.203 3.336 2.995 1.535-.059 2.912-1.41 2.887-2.967.025-1.664-1.577-2.975-3.181-2.916zm.043.83c1.142-.047 2.27.925 2.211 2.11.054 1.181-1.079 2.194-2.242 2.11-1.074.038-2.114-.854-2.117-1.953-.104-.927.498-1.807 1.361-2.12.251-.096.519-.145.787-.148zm8.964-2.913c-.008.874.022 1.75-.031 2.623-1.284-.818-3.215-.729-4.203.51-.993 1.193-.875 3.177.375 4.15.648.55 1.527.824 2.37.653.535-.038 1.034-.256 1.489-.528-.1.422.087.65.527.531.549.174.383-.413.4-.747V29.57c-.235-.09-.692-.087-.927 0zm-1.808 2.926c.657-.028 1.289.204 1.808.602v2.988c-.514.41-1.149.65-1.81.608-1.181.117-2.262-.994-2.173-2.17.029-1.095 1.045-2.127 2.175-2.028zm4.206-.718c.035 1.367-.081 2.746.091 4.107.184.998 1.173 1.67 2.158 1.666.763.08 1.511-.24 2.154-.572.008.288-.048.67.381.53.456.116.679-.098.558-.558v-5.173c-.235-.054-.796-.164-.926.063v4.254a2.865 2.865 0 01-2.571.5c-.528-.272-.975-.816-.922-1.434-.054-1.127-.047-2.256-.07-3.384-.202-.093-.651-.082-.853 0zm9.524-.113c-1.586.016-3.069 1.425-2.975 3.046.045 1.464 1.322 2.696 2.758 2.828.924.13 1.857-.324 2.477-.993-.115-.184-.444-.774-.699-.453-.375.368-.851.65-1.388.583-1.249.14-2.404-1.062-2.234-2.304.119-1.301 1.619-2.235 2.838-1.772.383.098.653.434.951.626.14-.19.55-.384.475-.67-.581-.577-1.377-.931-2.203-.89zm3.88-2.095v2.155c-.279.09-.91-.2-.946.18-.064.4-.011.78.494.62.556-.173.466.298.452.694.026 1.1-.057 2.212.082 3.305.301.778 1.21 1.173 2.005 1 .254-.044.73.002.713-.378.132-.398-.097-.545-.473-.41-.49.054-1.156-.003-1.305-.574-.179-.86-.054-1.759-.095-2.633.093-.305-.206-1.001.189-1.004.558-.03 1.166.06 1.694-.044-.036-.266.19-.89-.296-.756h-1.588V29.57c-.234-.09-.691-.087-.926 0zm3.848 2.208v5.678c.236.053.796.164.927-.063v-5.615c-.234-.09-.692-.087-.927 0zm.456-2.072c-.414.034-.724.531-.451.892.226.41.985.229 1.023-.243.089-.311-.294-.625-.572-.649zm1.518 2.041c.511 1.218 1.153 2.414 1.722 3.62.372.709.674 1.483 1.091 2.15.485.074.598-.504.797-.813.791-1.625 1.612-3.245 2.344-4.894-.237-.18-.621-.012-.899-.054-.727 1.364-1.338 2.82-2.055 4.203-.71-1.389-1.37-2.802-2.052-4.204-.29-.054-.653-.04-.948-.008zm9.172-.087c-1.304-.02-2.532.961-2.768 2.25-.339 1.418.452 3.078 1.894 3.499 1.152.347 2.512.03 3.361-.826.182-.305-.289-.55-.495-.629-.45.427-1.023.808-1.673.723-.547.05-1.115-.059-1.514-.466a2.133 2.133 0 01-.733-1.289h4.715c.13-.435.012-.964-.125-1.41-.291-.945-1.113-1.721-2.117-1.816a3.38 3.38 0 00-.545-.035zm.075.773c.787-.077 1.57.47 1.76 1.242.037.168.221.6-.111.51h-3.616c.03-.616.446-1.191.957-1.519.303-.19.66-.233 1.01-.233zM182.545.027a8.9 8.9 0 00-4.998 1.456c-1.377.936-2.38 2.469-2.577 4.131-.018 1.072-.137 2.205.36 3.198.754 1.749 2.525 2.758 4.244 3.365 2.208.829 4.589 1.096 6.771 2 .941.387 1.975 1.077 2.092 2.168.145 1.08-.436 2.187-1.397 2.695-1.473.8-3.237.687-4.861.6-1.956-.098-3.846-.681-5.622-1.488-.186-.032-.516-.336-.597-.018-.454.909-.892 1.825-1.337 2.738.311.294.799.432 1.194.636 2.102.976 4.399 1.562 6.724 1.546 1.732-.001 3.509.054 5.168-.531 1.609-.492 3.078-1.52 3.951-2.975.98-1.804 1.142-4.147.112-5.966-1.056-1.77-3.072-2.623-4.958-3.204-2.151-.679-4.447-.954-6.471-1.987-.742-.401-1.483-1.128-1.377-2.042a2.154 2.154 0 01.498-1.648c.937-1.146 2.541-1.393 3.947-1.329 2.245.097 4.466.635 6.538 1.503.31-.334.465-.85.717-1.251l.928-1.757c-.271-.262-.725-.36-1.082-.527-1.857-.67-3.802-1.156-5.775-1.292-.731-.027-1.462-.021-2.192-.021zm-26.796.154c-.509.04-1.055-.065-1.547.08-.032.245.263.469.338.703 2.744 4.72 5.507 9.428 8.262 14.141l.001 7.651c.393.127.885.016 1.315.053h2.587c.127-.393.015-.884.053-1.315-.005-2.387.009-4.778-.007-7.164L158.599.207c-.933-.061-1.905-.01-2.85-.026zm15.212.026c-1.629 2.857-3.291 5.703-4.901 8.566.304.845.848 1.59 1.269 2.382.301.444.501.99.895 1.357.24-.142.326-.511.505-.739 2.255-3.821 4.512-7.641 6.73-11.483-.074-.186-.388-.045-.551-.097-1.313-.004-2.646-.044-3.947.014zm-37.747.028v3.28c.394.128.885.017 1.315.054h6.067v19.189c.393.127.885.015 1.315.053h2.65c.126-.393.015-.885.053-1.315V3.569h7.328c.127-.393.016-.885.053-1.315V.235c-.393-.127-.885-.016-1.315-.053h-17.412l-.045.045-.009.008zm-11.52-.233c-2.238-.018-4.621.593-6.224 2.237-1.131 1.048-1.767 2.567-1.757 4.105-.071 1.45.365 2.977 1.462 3.978 1.473 1.424 3.514 2.01 5.441 2.531 1.705.491 3.492.777 5.085 1.585.731.389 1.463 1.02 1.499 1.912.109.924-.216 1.924-1.018 2.457-1.406 1.009-3.233.926-4.88.854-2.237-.059-4.404-.757-6.403-1.733-.286.297-.398.79-.619 1.161l-.86 1.785c.311.291.799.43 1.191.638 1.727.799 3.575 1.344 5.477 1.485 1.416.096 2.843.068 4.259-.008 2.258-.251 4.612-1.192 5.91-3.15.653-.973 1.026-2.143.946-3.321.019-.766.038-1.558-.314-2.262-.616-1.614-2.121-2.672-3.667-3.303-2.512-1.078-5.308-1.282-7.799-2.41-.894-.425-1.794-1.243-1.701-2.32-.019-1.116.793-2.083 1.809-2.462 1.495-.612 3.186-.387 4.75-.18 1.462.265 2.919.648 4.297 1.216.39.234.425-.513.642-.724.369-.748.823-1.467 1.098-2.255-.259-.255-.694-.31-1.024-.472a20.335 20.335 0 00-7.6-1.344zM94.289.235v22.523c.393.127.885.015 1.315.053h15.646c.127-.393.016-.885.053-1.315v-2.019c-.393-.127-.885-.016-1.315-.053H98.181v-5.95h10.356c.127-.393.016-.885.053-1.315-.029-.64.059-1.328-.044-1.937-3.448-.02-6.911-.003-10.365-.009V3.569h12.375c.127-.393.016-.885.053-1.315V.235c-.393-.127-.885-.016-1.315-.053H94.342l-.044.045-.01.008zm-22.465 0c.033 4.873-.008 9.747.085 14.619.076 1.334.545 2.63 1.18 3.798 1.2 2.163 3.45 3.6 5.846 4.083 1.283.337 2.615.245 3.926.205 2.923-.121 5.837-1.652 7.33-4.215.883-1.471 1.3-3.192 1.271-4.903.061-4.529.018-9.058.031-13.587C91.1.108 90.61.22 90.178.182h-2.523c-.127.393-.016.885-.054 1.315-.022 4.06.049 8.12-.056 12.178-.035 1.566-.606 3.166-1.712 4.302-1.038 1.014-2.497 1.458-3.923 1.437-1.675.11-3.485-.369-4.638-1.64-1.075-1.203-1.513-2.863-1.489-4.449-.063-4.363-.041-8.727-.067-13.09C75.302.11 74.79.22 74.338.182h-2.46l-.045.045-.009.008zM57.81.013c-3.243.034-6.483 1.379-8.692 3.776-3.272 3.286-4.104 8.747-1.862 12.824 1.617 3.265 4.903 5.523 8.446 6.205 1.188.24 2.411.128 3.615.128 1.715-.176 3.39-.753 4.88-1.618.22-.126.432-.293.655-.398.887.713 1.74 1.466 2.622 2.185.263-.083.388-.446.601-.623.408-.501.832-.99 1.216-1.51-.177-.308-.566-.499-.82-.762-2.106-1.783-4.234-3.542-6.352-5.312-.363.236-.609.699-.928 1.02-.27.388-.7.708-.846 1.164.411.465 1.004.815 1.422 1.264-2.258 1.353-5.222 1.315-7.525.115-2.163-1.176-3.793-3.353-4.12-5.806-.278-2.037.216-4.185 1.47-5.836 1.323-1.774 3.427-2.962 5.63-3.142 1.302-.099 2.628.038 3.826.578 2.848 1.18 4.903 4.158 4.812 7.263.047 1.08-.31 2.107-.716 3.094.27.357.704.61 1.037.923.704.563 1.385 1.174 2.1 1.712 1.162-1.856 1.807-4.079 1.646-6.28-.067-2.351-1.002-4.646-2.457-6.478-1.254-1.506-2.831-2.752-4.65-3.503a12.398 12.398 0 00-5.01-.983zM4.776 20.544c-.741.178-1.607.175-2.28.485 1.124.602 2.534.695 3.736 1.186a21.592 21.592 0 019.712 6.38c.09.158.738.743.548.218-2.22-3.66-5.44-6.756-9.38-8.503-.716-.24-1.577.215-2.336.234zM27.139 43.66c-1.274.502-2.702.834-3.89 1.447 1.194 3.293 2.932 6.44 5.21 9.117 1.99 2.243 4.495 4.094 7.283 5.204.891.125 1.663-.654 2.5-.867 1.775-.797 3.577-1.547 5.315-2.417-.507-.606-1.478-.851-2.109-1.388-4.047-2.852-7.35-6.683-9.694-11.037-.433-.465-.546-1.823-1.416-1.168l-3.2 1.109zm25.355.2c-1.541.633-3.214 1.135-4.678 1.854a25.515 25.515 0 007.665 5.194 433.953 433.953 0 0011.651-5.018c-.08-.343-.867-.244-1.145-.442-3.106-.707-6.05-1.943-8.9-3.331l-4.593 1.743z" fill="currentColor"/><path d="M26.315 14.233c-2.173.025-4.302.529-6.446.828C13.29 16.124 6.722 17.251.155 18.38c-.033.227.534.128.748.215 2.151.375 4.303.891 6.297 1.804 1.901.861 3.691 1.975 5.215 3.409 2.592 2.373 4.477 5.41 5.882 8.607 1.479 3.261 2.57 6.678 3.81 10.034.186.487.33.992.534 1.47.905-.227 1.8-.613 2.702-.9 7.665-2.666 15.34-5.306 22.995-8.004.114-.238-.381-.5-.51-.744-4.037-4.664-6.811-10.264-10.83-14.94-2.104-2.429-4.923-4.366-8.139-4.893a14.078 14.078 0 00-2.544-.204zm15.816 24.181c-3.297 1.148-6.6 2.282-9.895 3.436-.097.199.173.426.225.622a38.74 38.74 0 003.789 5.829c.1.203.309.415.538.225 6.32-2.378 12.625-4.8 18.937-7.2-.058-.282-.59-.43-.824-.661-2.04-1.355-3.885-2.977-5.618-4.702-1.392.411-2.777.954-4.167 1.415l-2.985 1.036zm4.229 7.762c-2.96 1.078-5.897 2.225-8.829 3.378-.257.103.12.323.189.44 2.11 2.2 4.578 4.078 7.322 5.417.315.191.626-.176.932-.235a650.407 650.407 0 007.94-3.469c-.058-.261-.582-.35-.816-.544a29.303 29.303 0 01-6.51-4.887c-.064-.053-.141-.107-.229-.1z" fill="currentColor"/></svg>